<svg width="240" height="223" viewBox="0 0 240 223" fill="none" xmlns="http://www.w3.org/2000/svg">
<path d="M150.332 4.10167C143.946 -0.495021 135.53 -1.27318 128.416 1.99509C93.7154 17.9529 -20.8184 74.2694 3.31005 111.916C31.6684 156.159 132.245 225.955 169.152 222.631C206.059 219.301 247.869 157.416 238.475 116.679C230.582 82.44 177.506 23.6557 150.332 4.10167Z" fill="#B5BEFF"/>
<path opacity="0.7" d="M150.332 4.10167C143.946 -0.495021 135.53 -1.27318 128.416 1.99509C93.7154 17.9529 -20.8184 74.2694 3.31005 111.916C31.6684 156.159 132.245 225.955 169.152 222.631C206.059 219.301 247.869 157.416 238.475 116.679C230.582 82.44 177.506 23.6557 150.332 4.10167Z" fill="#E0E4FF"/>
<path d="M177.49 23.6504V192.316C177.49 196.946 173.738 200.698 169.108 200.698H96.2276C91.5975 200.698 87.8457 196.946 87.8457 192.316V23.6449C87.8457 19.0204 91.5975 15.2686 96.222 15.2686H127.504L127.532 15.363C128.31 18.17 130.105 19.9931 132.095 19.9931H133.235C135.224 19.9931 137.02 18.17 137.798 15.363L137.826 15.2686H169.097C173.738 15.2686 177.49 19.0204 177.49 23.6504Z" fill="white" stroke="#263238" stroke-miterlimit="10" stroke-linecap="round" stroke-linejoin="round"/>
<path d="M183.187 63.9369V47.0898H181.664V25.5237C181.664 18.1812 175.711 12.2283 168.369 12.2283H96.9614C89.6189 12.2283 83.666 18.1812 83.666 25.5237V196.902C83.666 204.245 89.6189 210.197 96.9614 210.197H168.369C175.711 210.197 181.664 204.245 181.664 196.902V78.294H183.187V68.3391H181.664V63.9369H183.187ZM177.49 187.403C177.49 194.745 171.537 200.698 164.194 200.698H101.141C93.7988 200.698 87.8458 194.745 87.8458 187.403V28.5585C87.8458 21.216 93.7988 15.2686 101.141 15.2686H127.504L127.532 15.3631C128.31 18.1701 130.105 19.9932 132.095 19.9932H133.235C135.225 19.9932 137.02 18.1701 137.798 15.3631L137.826 15.2686H164.183C171.526 15.2686 177.479 21.2216 177.479 28.5585V187.403H177.49Z" fill="#3F54F3" stroke="#263238" stroke-miterlimit="10" stroke-linecap="round" stroke-linejoin="round"/>
<path d="M167.307 14.0569H98.0285C90.9473 14.0569 85.2056 19.7986 85.2056 26.8798V195.54C85.2056 202.621 90.9473 208.363 98.0285 208.363H167.307C174.388 208.363 180.13 202.621 180.13 195.54V26.8798C180.124 19.7986 174.388 14.0569 167.307 14.0569ZM177.49 187.875C177.49 194.957 171.748 200.698 164.667 200.698H100.669C93.5874 200.698 87.8457 194.957 87.8457 187.875V28.086C87.8457 21.0047 93.5819 15.2686 100.663 15.2686H127.504L127.532 15.3631C128.31 18.17 130.105 19.9931 132.095 19.9931H133.235C135.224 19.9931 137.02 18.17 137.798 15.3631L137.826 15.2686H164.661C171.742 15.2686 177.484 21.0103 177.484 28.0915V187.875H177.49Z" fill="#263238" stroke="#263238" stroke-miterlimit="10" stroke-linecap="round" stroke-linejoin="round"/>
<path d="M133.64 15.9022C133.64 15.213 133.079 14.6516 132.39 14.6516C131.701 14.6516 131.139 15.213 131.139 15.9022C131.139 16.5915 131.701 17.1528 132.39 17.1528C133.079 17.1528 133.64 16.5915 133.64 15.9022Z" fill="white"/>
<path d="M95.8113 20.6879C95.8113 21.9496 94.3939 22.4054 94.3884 23.3669V23.4336H95.7669V23.8561H93.9326V23.4948C93.9326 22.1441 95.35 21.8773 95.35 20.699C95.35 20.271 95.2055 20.0431 94.8608 20.0431C94.5218 20.0431 94.3717 20.2877 94.3717 20.6601V21.0325H93.9326V20.6934C93.9326 20.0542 94.2272 19.6262 94.872 19.6262C95.5223 19.6262 95.8113 20.0431 95.8113 20.6879Z" fill="#263238"/>
<path d="M98.1069 20.6824V20.788C98.1069 21.2216 97.9346 21.5217 97.6011 21.6495C97.9513 21.7829 98.1069 22.0998 98.1069 22.5166V22.839C98.1069 23.4782 97.8068 23.9006 97.162 23.9006C96.5228 23.9006 96.2227 23.4838 96.2227 22.839V22.55H96.6618V22.8668C96.6618 23.2448 96.8174 23.4727 97.1509 23.4727C97.4899 23.4727 97.64 23.2503 97.64 22.8279V22.5055C97.64 22.0942 97.4677 21.8941 97.112 21.883H96.8619V21.4661H97.1398C97.451 21.455 97.64 21.2549 97.64 20.8936V20.6991C97.64 20.2711 97.4899 20.0488 97.1509 20.0488C96.8174 20.0488 96.6618 20.2822 96.6618 20.6602V20.8769H96.2227V20.688C96.2227 20.0488 96.5228 19.6319 97.162 19.6319C97.8068 19.6263 98.1069 20.0376 98.1069 20.6824Z" fill="#263238"/>
<path d="M99.0074 20.999V21.5771H98.5571V20.999H99.0074ZM99.0074 23.2779V23.856H98.5571V23.2779H99.0074Z" fill="#263238"/>
<path d="M99.9577 21.3717C100.091 21.1438 100.297 21.0271 100.58 21.0271C101.119 21.0271 101.358 21.4217 101.358 22.022V22.8391C101.358 23.4783 101.053 23.9007 100.413 23.9007C99.7743 23.9007 99.4741 23.4838 99.4741 22.8391V22.5556H99.9132V22.8669C99.9132 23.2448 100.069 23.4727 100.402 23.4727C100.736 23.4727 100.891 23.2448 100.891 22.8669V22.0553C100.891 21.6774 100.736 21.4495 100.402 21.4495C100.147 21.4495 99.9744 21.594 99.9299 21.8997V21.9942H99.4908L99.602 19.6653H101.253V20.0822H100.019L99.9577 21.3717Z" fill="#263238"/>
<path d="M103.682 20.6712V20.749H103.243V20.6434C103.243 20.2654 103.087 20.0431 102.748 20.0431C102.392 20.0431 102.237 20.271 102.237 20.7212V21.6606C102.348 21.3715 102.576 21.2103 102.915 21.2103C103.454 21.2103 103.693 21.5994 103.693 22.2053V22.8389C103.693 23.4781 103.376 23.9005 102.737 23.9005C102.092 23.9005 101.775 23.4837 101.775 22.8389V20.7045C101.775 20.0431 102.076 19.6262 102.737 19.6262C103.387 19.6262 103.682 20.032 103.682 20.6712ZM102.242 22.2442V22.8723C102.242 23.2502 102.398 23.4781 102.737 23.4781C103.07 23.4781 103.232 23.2502 103.232 22.8723V22.2442C103.232 21.8662 103.07 21.6383 102.737 21.6383C102.398 21.6383 102.242 21.8662 102.242 22.2442Z" fill="#263238"/>
<path d="M149.415 20.8604H148.231V23.8174H149.415V20.8604Z" fill="#263238"/>
<path d="M150.994 20.2656H149.81V23.8174H150.994V20.2656Z" fill="#263238"/>
<path d="M152.567 19.8433H151.383V23.8119H152.567V19.8433Z" fill="#263238"/>
<path d="M154.145 19.115H152.961V23.8173H154.145V19.115Z" fill="#263238"/>
<path d="M168.781 23.7336H161.683V19.3982H168.781V23.7336ZM162.077 23.339H168.386V19.7928H162.077V23.339Z" fill="#263238"/>
<path d="M166.418 20.2209H162.672V22.9112H166.418V20.2209Z" fill="#263238"/>
<path d="M169.431 21.0547H168.536V22.0774H169.431V21.0547Z" fill="#263238"/>
<path d="M159.081 22.789C159.037 22.789 158.987 22.7779 158.948 22.7501C157.503 21.8941 156.547 22.689 156.508 22.7223C156.396 22.8168 156.23 22.8057 156.135 22.6945C156.041 22.5834 156.052 22.4166 156.157 22.3221C156.208 22.2777 157.43 21.2327 159.215 22.2943C159.342 22.3666 159.381 22.5333 159.309 22.6556C159.259 22.7446 159.17 22.789 159.081 22.789Z" fill="#263238"/>
<path d="M159.615 21.8996C159.57 21.8996 159.52 21.8885 159.481 21.8607C157.391 20.6212 155.991 21.8218 155.974 21.8329C155.863 21.933 155.696 21.9163 155.602 21.8107C155.507 21.6995 155.513 21.5328 155.624 21.4383C155.64 21.4216 157.336 19.9709 159.754 21.4105C159.881 21.4828 159.92 21.6495 159.848 21.7718C159.792 21.8552 159.709 21.8996 159.615 21.8996Z" fill="#263238"/>
<path d="M160.104 20.8657C160.059 20.8657 160.009 20.8546 159.97 20.8268C157.325 19.2538 155.568 20.7323 155.496 20.799C155.385 20.8935 155.218 20.8824 155.124 20.7712C155.029 20.66 155.04 20.4933 155.146 20.3988C155.168 20.3821 157.258 18.5924 160.243 20.371C160.371 20.4433 160.409 20.61 160.337 20.7323C160.282 20.8212 160.193 20.8657 160.104 20.8657Z" fill="#263238"/>
<path d="M158.286 23.2339C158.286 23.6007 157.986 23.9009 157.619 23.9009C157.252 23.9009 156.952 23.6007 156.952 23.2339C156.952 22.867 157.252 22.5669 157.619 22.5669C157.986 22.5669 158.286 22.867 158.286 23.2339Z" fill="#263238"/>
<path d="M55.1791 70.7013C55.1791 70.7013 52.2554 68.7559 52.8946 68.139C53.5338 67.522 56.6742 68.8782 57.3857 69.7898C58.1027 70.7013 57.7414 71.3405 57.1522 71.3961C56.5631 71.4517 55.1791 70.7013 55.1791 70.7013Z" fill="white" stroke="#263238" stroke-miterlimit="10" stroke-linecap="round" stroke-linejoin="round"/>
<path d="M57.6469 68.4611C57.6469 68.4611 53.1169 66.1044 54.2007 68.2777C55.2902 70.451 58.0082 72.4464 59.092 72.9911C60.1814 73.5358 66.1621 73.3524 66.1621 73.3524C66.1621 73.3524 65.0727 71.357 63.9889 70.8179C62.905 70.2731 57.6469 68.4611 57.6469 68.4611Z" fill="white" stroke="#263238" stroke-miterlimit="10" stroke-linecap="round" stroke-linejoin="round"/>
<path d="M61.9992 68.4611C61.9992 68.4611 56.0185 65.1984 55.8351 66.4657C55.6517 67.733 60.5485 71.9017 62.1771 72.6298C63.8057 73.3524 66.1624 73.3524 66.1624 73.3524L61.9992 68.4611Z" fill="white" stroke="#263238" stroke-miterlimit="10" stroke-linecap="round" stroke-linejoin="round"/>
<path d="M85.5552 74.0418C85.5552 74.0418 83.3819 68.9671 81.7478 68.2445C80.1192 67.5219 65.4343 68.9671 65.4343 68.9671C65.4343 68.9671 58.3641 63.1698 58.9088 66.0656C59.4536 68.9671 63.9835 72.4076 65.2508 73.3136C66.5181 74.2196 75.945 73.8583 75.945 73.8583L78.8464 76.5763L85.5552 74.0418Z" fill="white" stroke="#263238" stroke-miterlimit="10" stroke-linecap="round" stroke-linejoin="round"/>
<path d="M174.777 82.207C174.777 82.207 174.182 83.3187 174.521 84.3414C174.86 85.3641 175.799 86.2201 175.799 86.2201L176.227 88.8658L182.03 89.1215L179.64 80.2505L174.777 82.207Z" fill="white" stroke="#263238" stroke-miterlimit="10" stroke-linecap="round" stroke-linejoin="round"/>
<path d="M170.835 65.71C170.835 65.71 173.253 81.4399 173.62 82.4071C173.981 83.3742 176.766 84.4636 177.733 83.9801C178.7 83.4965 177.005 81.1954 177.005 81.1954L177.489 66.0713C177.489 66.0713 173.376 64.4983 170.835 65.71Z" fill="#263238" stroke="#263238" stroke-miterlimit="10" stroke-linecap="round" stroke-linejoin="round"/>
<path d="M177.611 70.6736C177.611 70.6736 174.221 70.429 174.104 71.0348C173.982 71.6407 173.982 73.6973 174.588 73.9363C175.194 74.1808 179.307 74.5421 180.035 74.2976C180.763 74.053 181.608 72.6023 180.88 71.5129C180.152 70.429 177.611 70.6736 177.611 70.6736Z" fill="white" stroke="#263238" stroke-miterlimit="10" stroke-linecap="round" stroke-linejoin="round"/>
<path d="M177.611 74.5422C177.611 74.5422 174.343 74.5422 174.465 75.2703C174.588 75.9985 174.221 77.5715 175.555 77.8105C176.883 78.055 179.184 77.9327 180.396 77.6882C181.608 77.4436 181.969 75.9929 181.002 75.148C180.035 74.3032 177.611 74.5422 177.611 74.5422Z" fill="white" stroke="#263238" stroke-miterlimit="10" stroke-linecap="round" stroke-linejoin="round"/>
<path d="M172.358 75.4759C172.358 75.4759 171.942 72.4244 170.958 72.5134C170.224 72.5745 168.473 73.1304 168.629 74.4699C168.79 75.815 169.579 77.9772 170.169 79.061C170.758 80.1449 172.247 80.0671 172.775 78.8943C173.303 77.7159 172.358 75.4759 172.358 75.4759Z" fill="white" stroke="#263238" stroke-miterlimit="10" stroke-linecap="round" stroke-linejoin="round"/>
<path d="M177.794 77.8104C177.794 77.8104 174.837 77.8104 174.948 78.5108C175.06 79.2111 174.732 80.7229 175.932 80.9564C177.138 81.1898 179.217 81.0731 180.312 80.8397C181.407 80.6062 181.735 79.2111 180.857 78.394C179.984 77.577 177.794 77.8104 177.794 77.8104Z" fill="white" stroke="#263238" stroke-miterlimit="10" stroke-linecap="round" stroke-linejoin="round"/>
<path d="M177.933 80.4673C177.933 80.4673 175.46 80.4673 175.554 81.0509C175.649 81.6345 175.371 82.9018 176.377 83.0963C177.383 83.2909 179.123 83.1964 180.04 82.9963C180.957 82.8017 181.229 81.6345 180.496 80.9508C179.762 80.2727 177.933 80.4673 177.933 80.4673Z" fill="white" stroke="#263238" stroke-miterlimit="10" stroke-linecap="round" stroke-linejoin="round"/>
<path d="M170.158 49.7913C166.745 49.7246 163.816 51.8589 162.549 54.816C162.121 55.8164 161.887 56.9114 161.887 58.0675C161.887 60.0741 162.599 61.9139 163.794 63.3479C165.311 65.1766 167.796 66.4883 170.158 66.3383C177.417 65.8936 196.449 76.0819 196.449 76.0819V40.0476C196.454 40.0476 177.695 49.9413 170.158 49.7913Z" fill="white" stroke="#263238" stroke-miterlimit="10" stroke-linecap="round" stroke-linejoin="round"/>
<path d="M168.685 58.3622C168.685 54.4381 170.869 51.0308 174.087 49.2744C172.603 49.619 171.258 49.8136 170.163 49.7969C166.751 49.7302 163.821 51.8646 162.554 54.8216C162.126 55.8221 161.893 56.917 161.893 58.0732C161.893 60.0797 162.604 61.9195 163.799 63.3535C165.316 65.1822 167.801 66.494 170.163 66.3439C170.891 66.2994 171.742 66.3661 172.676 66.5162C170.247 64.6153 168.685 61.6749 168.685 58.3622Z" fill="#707FF3" stroke="#263238" stroke-miterlimit="10" stroke-linecap="round" stroke-linejoin="round"/>
<path d="M213.95 62.3253C216.304 52.6558 210.373 42.9091 200.704 40.5554C191.034 38.2018 181.288 44.1324 178.934 53.8019C176.58 63.4714 182.511 73.2181 192.181 75.5718C201.85 77.9255 211.597 71.9948 213.95 62.3253Z" fill="white" stroke="#263238" stroke-miterlimit="10" stroke-linecap="round" stroke-linejoin="round"/>
<path d="M211.812 58.0674C211.812 66.5493 204.936 73.4249 196.454 73.4249C191.702 73.4249 187.45 71.2683 184.637 67.8666C182.425 65.2097 181.102 61.7914 181.102 58.0618C181.102 55.9163 181.541 53.882 182.33 52.0255C184.676 46.5395 190.118 42.6987 196.454 42.6987C204.93 42.7043 211.812 49.5854 211.812 58.0674Z" fill="#A6A6A6" stroke="#263238" stroke-miterlimit="10" stroke-linecap="round" stroke-linejoin="round"/>
<path d="M196.449 54.3101V61.8138L184.632 67.8667C182.42 65.2099 181.097 61.7915 181.097 58.0619C181.097 55.9164 181.536 53.8821 182.325 52.0256L196.449 54.3101Z" fill="white" stroke="#263238" stroke-miterlimit="10" stroke-linecap="round" stroke-linejoin="round"/>
<path d="M200.2 58.0619C200.2 60.1351 198.522 61.8137 196.449 61.8137C194.375 61.8137 192.697 60.1351 192.697 58.0619C192.697 55.9887 194.375 54.3101 196.449 54.3101C198.522 54.3156 200.2 55.9942 200.2 58.0619Z" fill="white" stroke="#263238" stroke-miterlimit="10" stroke-linecap="round" stroke-linejoin="round"/>
<path d="M175.01 89.0991L174.41 86.5812L182.203 85.6196L182.031 89.1213L175.01 89.0991Z" fill="white" stroke="#263238" stroke-miterlimit="10" stroke-linecap="round" stroke-linejoin="round"/>
<path d="M78.3852 77.588L76.5898 74.7143L84.8606 70.5178L85.5553 74.0418L78.3852 77.588Z" fill="white" stroke="#263238" stroke-miterlimit="10" stroke-linecap="round" stroke-linejoin="round"/>
<path d="M128.66 73.4246C128.66 73.4246 115.364 71.9461 114.186 72.5409C113.002 73.13 96.1661 93.0731 96.1661 93.0731L85.8277 72.3963L77.1123 76.2371C77.1123 76.2371 88.0399 113.455 89.813 113.9C91.5861 114.345 108.422 103.117 108.422 103.117L107.388 117.885C107.388 117.885 110.49 130.291 124.224 132.654C137.959 135.016 146.085 124.383 147.858 120.837C149.631 117.291 151.254 112.121 151.254 112.121L157.607 93.3622C157.607 93.3622 175.477 107.986 179.468 109.759C183.453 111.532 187.15 113.155 187.589 112.271C188.033 111.388 183.603 87.7539 183.603 87.7539L174.149 88.1985L174.593 91.8892C174.593 91.8892 162.332 75.7925 161.298 74.1639C160.264 72.5409 157.163 72.8354 153.472 71.8016C149.781 70.7678 128.66 73.4246 128.66 73.4246Z" fill="#707FF3" stroke="#263238" stroke-miterlimit="10" stroke-linecap="round" stroke-linejoin="round"/>
<path d="M108.422 103.112L118.321 95.7246" stroke="#263238" stroke-miterlimit="10" stroke-linecap="round" stroke-linejoin="round"/>
<path d="M114.775 98.5315L119.795 97.6477" stroke="#263238" stroke-miterlimit="10" stroke-linecap="round" stroke-linejoin="round"/>
<path d="M157.607 93.3623L161.004 81.4009" stroke="#263238" stroke-miterlimit="10" stroke-linecap="round" stroke-linejoin="round"/>
<path d="M158.936 89.5215L162.626 84.3523" stroke="#263238" stroke-miterlimit="10" stroke-linecap="round" stroke-linejoin="round"/>
<path d="M175.032 100.488L175.182 103.406" stroke="#263238" stroke-miterlimit="10" stroke-linecap="round" stroke-linejoin="round"/>
<path d="M174.593 91.8894L174.86 97.1531" stroke="#263238" stroke-miterlimit="10" stroke-linecap="round" stroke-linejoin="round"/>
<path d="M96.166 93.0679L99.2675 99.5655" stroke="#263238" stroke-miterlimit="10" stroke-linecap="round" stroke-linejoin="round"/>
<path d="M133.679 71.8018L127.181 72.9857C127.181 72.9857 124.819 74.9033 123.49 79.3388C122.162 83.7688 121.717 87.6095 121.717 87.6095L127.331 87.9041L122.901 92.3341C122.901 92.3341 124.23 94.2517 127.037 98.387C129.843 102.522 134.273 107.247 134.273 107.247L126.003 117.88C126.003 117.88 136.047 115.662 142.25 108.87C148.453 102.078 152.143 91.8839 152.143 91.8839L147.269 88.0431L152.438 87.0092C152.438 87.0092 153.472 78.5885 148.008 73.1247C142.544 67.6609 133.679 71.8018 133.679 71.8018Z" fill="#707FF3" stroke="#263238" stroke-miterlimit="10" stroke-linecap="round" stroke-linejoin="round"/>
<path d="M148.303 75.3425C148.303 75.3425 146.574 78.7553 146.235 85.0918C145.968 90.0386 143.373 96.3417 141.077 100.799C139.26 104.346 137.631 106.725 137.514 106.363C137.514 106.363 136.553 104.829 135.024 100.366C134.652 99.2932 134.252 98.0481 133.818 96.6141C131.606 89.2271 129.683 77.2657 130.566 74.9034C131.456 72.5412 132.045 71.5073 132.045 71.5073C139.148 81.1065 148.303 75.3425 148.303 75.3425Z" fill="white" stroke="#263238" stroke-miterlimit="10" stroke-linecap="round" stroke-linejoin="round"/>
<path d="M139.293 95.5803L141.083 100.8C139.265 104.346 137.637 106.725 137.52 106.363C137.52 106.363 136.558 104.829 135.03 100.366L137.52 95.8749L135.052 91.256L137.965 88.3379L141.95 92.3232L139.293 95.5803Z" fill="#263238" stroke="#263238" stroke-miterlimit="10" stroke-linecap="round" stroke-linejoin="round"/>
<path d="M133.09 93.3624L137.964 88.3433L143.901 93.9404" stroke="#263238" stroke-miterlimit="10" stroke-linecap="round" stroke-linejoin="round"/>
<path d="M132.056 71.5073C132.056 71.5073 132.206 75.9373 133.829 80.2227C135.452 84.5081 137.965 88.3434 137.965 88.3434L144.907 78.4496C144.907 78.4441 137.375 79.1833 132.056 71.5073Z" stroke="#263238" stroke-miterlimit="10" stroke-linecap="round" stroke-linejoin="round"/>
<path d="M153.183 55.855C153.183 55.855 155.29 55.5215 155.29 58.4063C155.29 61.291 154.067 64.8428 154.067 64.8428L153.183 55.855Z" fill="white" stroke="#263238" stroke-miterlimit="10" stroke-linecap="round" stroke-linejoin="round"/>
<path d="M152.438 45.2164C152.438 45.2164 153.917 58.6563 154.061 62.6471C154.211 66.6324 153.767 70.1786 152.438 71.9517C151.11 73.7248 145.791 80.8116 142.984 81.1117C140.177 81.4063 137.075 79.9278 135.897 78.894C134.713 77.8601 129.105 69.0002 129.105 69.0002C129.105 69.0002 124.819 68.7056 123.785 63.0918C122.752 57.4779 128.51 58.8064 128.51 58.8064C128.51 58.8064 125.408 53.9317 125.114 49.2072C124.819 44.4827 123.93 42.7096 136.636 42.415C149.337 42.1148 152.438 45.2164 152.438 45.2164Z" fill="white" stroke="#263238" stroke-miterlimit="10" stroke-linecap="round" stroke-linejoin="round"/>
<path d="M145.791 54.6655L149.337 66.9271L143.873 65.2985" stroke="#263238" stroke-miterlimit="10" stroke-linecap="round" stroke-linejoin="round"/>
<path d="M138.409 63.8257L134.124 64.7094" stroke="#263238" stroke-miterlimit="10" stroke-linecap="round" stroke-linejoin="round"/>
<path d="M136.342 64.5649C136.342 64.5649 137.376 68.5502 142.1 69.2895C146.825 70.0287 149.187 69.1394 149.187 69.1394" stroke="#263238" stroke-miterlimit="10" stroke-linecap="round" stroke-linejoin="round"/>
<path d="M137.52 66.9272C137.52 66.9272 137.37 74.3142 140.032 74.6088C142.689 74.9034 142.1 69.2895 142.1 69.2895C142.1 69.2895 139.588 68.7003 137.52 66.9272Z" fill="#263238" stroke="#263238" stroke-miterlimit="10" stroke-linecap="round" stroke-linejoin="round"/>
<path d="M138.064 72.0295C138.426 73.3746 139.032 74.4919 140.032 74.603C140.621 74.6697 141.055 74.4418 141.366 74.0528C140.849 73.1468 139.065 72.3908 138.064 72.0295Z" fill="white" stroke="#263238" stroke-miterlimit="10" stroke-linecap="round" stroke-linejoin="round"/>
<path d="M139.365 58.0618C139.365 58.8788 139.004 59.5403 138.554 59.5403C138.103 59.5403 137.742 58.8788 137.742 58.0618C137.742 57.2447 138.103 56.5833 138.554 56.5833C139.004 56.5888 139.365 57.2502 139.365 58.0618Z" fill="#263238"/>
<path d="M149.265 56.7334C149.265 57.5505 148.903 58.2119 148.453 58.2119C148.003 58.2119 147.642 57.5505 147.642 56.7334C147.642 55.9163 148.003 55.2549 148.453 55.2549C148.898 55.2604 149.265 55.9219 149.265 56.7334Z" fill="#263238"/>
<path d="M135.897 55.555C135.897 55.555 137.815 53.0427 141.511 53.4873" stroke="#263238" stroke-miterlimit="10" stroke-linecap="round" stroke-linejoin="round"/>
<path d="M146.235 52.8926C146.235 52.8926 148.153 49.3464 151.254 51.1195" stroke="#263238" stroke-miterlimit="10" stroke-linecap="round" stroke-linejoin="round"/>
<path d="M136.781 45.5111C136.781 45.5111 132.201 44.7719 133.235 46.1003C134.268 47.4287 136.631 49.0517 135.452 50.0856C134.268 51.1194 131.317 52.8925 131.467 53.7763C131.617 54.66 131.912 58.3563 131.467 59.2401C131.022 60.1238 129.989 60.2739 128.955 60.1238C127.921 59.9738 126.442 57.3169 125.853 56.5777C125.264 55.8384 119.945 50.5247 120.979 46.2393C122.012 41.9538 133.09 38.5577 133.09 38.5577C133.09 38.5577 140.177 30.5816 144.907 30.4371C149.632 30.287 147.858 34.7225 147.714 35.1616C147.564 35.6063 154.506 34.7169 155.835 39.0024C157.163 43.2878 156.718 44.4662 150.665 46.0892C144.612 47.7233 136.781 45.5111 136.781 45.5111Z" fill="#263238" stroke="#263238" stroke-miterlimit="10" stroke-linecap="round" stroke-linejoin="round"/>
<path d="M229.943 39.6138L217.909 42.7264L220.399 43.9715L213.546 46.0447L227.453 44.1771L223.929 42.5152L229.943 39.6138Z" fill="#263238"/>
<path d="M232.416 68.9171L220.238 66.3992L221.922 68.6169L214.863 67.4552L228.164 71.9185L225.73 68.8726L232.416 68.9171Z" fill="#263238"/>
<path d="M219.321 88.9881L209.066 81.9569L209.766 84.6527L203.702 80.8508L214.241 90.1109L213.173 86.3591L219.321 88.9881Z" fill="#263238"/>
<path d="M66.7107 63.9424C74.6982 63.9424 81.1733 57.4672 81.1733 49.4797C81.1733 41.4922 74.6982 35.0171 66.7107 35.0171C58.7232 35.0171 52.248 41.4922 52.248 49.4797C52.248 57.4672 58.7232 63.9424 66.7107 63.9424Z" stroke="#ECAC45" stroke-miterlimit="10" stroke-linecap="round" stroke-linejoin="round"/>
<path d="M66.7938 61.1965V59.2289C65.1875 59.1677 63.9869 58.6453 63.1976 57.6614C62.4083 56.6776 61.9748 55.2825 61.897 53.4705L64.8929 52.8869C64.9262 53.6206 65.0096 54.2709 65.1486 54.8323C65.2875 55.3937 65.5099 55.8272 65.8156 56.1329C66.1213 56.4386 66.5215 56.5887 67.0217 56.5887C67.5831 56.5887 67.9833 56.4219 68.2279 56.0829C68.4724 55.7494 68.5891 55.3214 68.5891 54.8045C68.5891 53.9763 68.4002 53.2982 68.0166 52.7646C67.6331 52.2366 67.1384 51.703 66.527 51.1694L64.1147 49.0628C63.6756 48.6737 63.2977 48.2624 62.9697 47.8344C62.6418 47.4064 62.3861 46.9229 62.1971 46.3837C62.0081 45.8445 61.9136 45.2165 61.9136 44.4994C61.9136 43.0765 62.3194 41.9649 63.1309 41.1645C63.9424 40.3585 65.0374 39.9194 66.4103 39.8416V37.9407H67.4164V39.8138C68.2112 39.8583 68.8671 40.0361 69.384 40.3418C69.9009 40.6476 70.3122 41.0366 70.6124 41.5146C70.9181 41.9927 71.146 42.5263 71.2905 43.121C71.4405 43.7157 71.5295 44.3327 71.5573 44.9719L68.6058 45.4888C68.5725 44.8941 68.5113 44.3605 68.4168 43.8825C68.3223 43.4045 68.15 43.0321 67.8888 42.7597C67.6331 42.4873 67.2552 42.3651 66.7549 42.3984C66.2213 42.4151 65.8211 42.5874 65.5488 42.9153C65.2764 43.2433 65.1375 43.6601 65.1375 44.1548C65.1375 44.8274 65.2875 45.3665 65.5821 45.7834C65.8767 46.1947 66.2436 46.606 66.6827 47.0118L69.0727 49.0961C69.573 49.5519 70.0343 50.041 70.4678 50.5691C70.8958 51.1027 71.2404 51.6919 71.4961 52.3477C71.7518 53.0036 71.8852 53.754 71.8852 54.5988C71.8852 55.4437 71.7185 56.1941 71.3794 56.861C71.0459 57.5225 70.5734 58.0616 69.962 58.4674C69.3506 58.8731 68.6281 59.1233 67.7832 59.2178V61.2076H66.7938V61.1965Z" fill="#ECAC45"/>
</svg>
