<svg width="40" height="49" viewBox="0 0 40 49" fill="none" xmlns="http://www.w3.org/2000/svg">
<g clip-path="url(#clip0_739_1587)">
<path d="M5.86118 48.7512C5.63365 48.5658 5.34394 48.581 5.08408 48.5048C1.55792 47.4685 -0.51102 44.1562 0.110658 40.3766C0.792017 36.2249 1.9272 32.2015 3.64055 28.3634C5.31783 24.6092 7.49495 21.2106 10.479 18.3912C11.3651 17.5521 12.3128 16.7836 13.3139 16.0924C13.478 15.9781 13.6744 15.9045 13.7851 15.7114H18.2351C18.2351 15.8829 18.1107 15.9426 17.9864 16.0226C16.8732 16.7622 15.8285 17.6044 14.8656 18.5385C13.9381 19.4455 13.0735 20.4173 12.2781 21.4469C10.3895 23.8599 8.94968 26.5486 7.75605 29.3744C6.70044 31.8738 5.92956 34.4748 5.31908 37.1215C5.01943 38.4246 4.66383 39.7302 4.57306 41.0586C4.44127 43.1326 5.29296 44.8103 6.92549 46.0346C7.87415 46.7628 9.03125 47.1516 10.2179 47.1408C19.0043 47.123 27.7931 47.12 36.5845 47.1319C36.7238 47.1319 36.863 47.1319 37.0023 47.1319C37.0294 47.1291 37.0568 47.132 37.0827 47.1406C37.1086 47.1492 37.1325 47.1632 37.1529 47.1817C37.1732 47.2002 37.1896 47.2228 37.2009 47.2482C37.2122 47.2735 37.2182 47.3009 37.2186 47.3288C36.3483 48.0514 35.3362 48.4413 34.2482 48.6508C34.1475 48.6699 34.0257 48.6267 33.9585 48.7486L5.86118 48.7512Z" fill="#ECAC45"/>
<path d="M12.3714 1.59144C13.1771 1.54953 13.8435 1.18884 14.4254 0.641462C14.7474 0.339195 15.1714 0.222354 15.537 9.91917e-05H16.7468C17.2951 0.237958 17.8082 0.553015 18.2711 0.936109C19.369 1.81116 20.6235 1.81243 21.7177 0.936109C22.215 0.53478 22.731 0.174092 23.3515 -0.00244141H24.3797C24.9877 0.202033 25.4987 0.57542 25.9961 0.966588C26.9982 1.74131 28.1384 1.78195 29.1952 1.08343C29.8032 0.680834 30.4212 0.5678 31.0739 0.913247C31.7553 1.27394 31.9791 1.90133 32.0002 2.64811C32.1034 6.30579 30.4896 9.0465 27.6846 11.1573C26.987 11.6831 26.2199 12.0933 25.4888 12.5619L18.5123 12.5734L18.4178 12.5607C18.4862 12.073 18.301 11.664 18.0448 11.2754C17.5338 10.4994 16.7803 9.99014 16.0841 9.42243C14.8743 8.43689 13.8013 7.33324 13.1584 5.87271C12.569 4.52905 12.2993 3.06197 12.3714 1.59144Z" fill="#FFB134"/>
<path d="M37.2186 47.3315C37.2183 47.3037 37.2122 47.2762 37.2009 47.2509C37.1896 47.2256 37.1732 47.2029 37.1529 47.1844C37.1325 47.1659 37.1086 47.1519 37.0827 47.1434C37.0568 47.1348 37.0294 47.1318 37.0023 47.1346C36.863 47.1346 36.7238 47.1346 36.5845 47.1346C27.7981 47.1346 19.0093 47.1376 10.2179 47.1435C9.03523 47.1563 7.88115 46.7722 6.93295 46.05C5.30042 44.8257 4.44624 43.148 4.58052 41.0741C4.66507 39.7418 5.02067 38.4362 5.32654 37.137C5.93702 34.4877 6.70791 31.8867 7.76351 29.3898C8.95714 26.564 10.3969 23.8804 12.2856 21.4623C13.081 20.4327 13.9456 19.4609 14.873 18.5539C15.8335 17.6157 16.876 16.7693 17.9876 16.0253C18.112 15.9453 18.2363 15.8856 18.2363 15.7142L18.5185 15.7065C18.4977 15.7983 18.4677 15.8877 18.429 15.9732C16.8276 18.6826 15.2249 21.3882 13.621 24.09C12.9496 25.2241 12.2918 26.3672 11.6316 27.5076C10.8632 27.5419 10.2639 27.9737 10.0811 28.6227C9.99278 28.9529 10.0071 29.3029 10.122 29.6244C10.2369 29.9459 10.4469 30.223 10.7227 30.4173C11.0044 30.6007 11.3369 30.6853 11.6699 30.6582C12.0028 30.6312 12.3181 30.494 12.5678 30.2674C13.1895 29.7175 13.1895 29.0202 12.9297 28.2849L20.3798 15.7116H21.4989C21.5641 15.9552 21.5942 16.2072 21.5884 16.4597C21.5884 18.8786 21.5884 21.2985 21.5884 23.7191C21.5076 23.7903 21.4305 23.8652 21.3472 23.9325C21.0779 24.1603 20.8903 24.473 20.814 24.8215C20.7377 25.1701 20.777 25.5346 20.9257 25.8579C21.2017 26.4332 21.9825 26.8548 22.542 26.7316C22.8957 26.67 23.2177 26.4854 23.4534 26.209C23.689 25.9326 23.8239 25.5816 23.8351 25.2152C23.8824 24.5332 23.4559 24.1484 23.073 23.7191L23.0829 15.718H26.2348C26.9261 16.2476 27.6336 16.7581 28.3075 17.3093C30.9695 19.4963 33.0832 22.1786 34.7742 25.2013C37.282 29.6718 38.7989 34.5029 39.7476 39.5437C40.0137 40.9509 40.1467 42.3377 39.7178 43.7195C39.2664 45.194 38.4744 46.4336 37.2186 47.3315Z" fill="#FFB134"/>
<path d="M18.5161 15.7115L18.2338 15.7191H13.7838C12.8924 15.6213 12.2607 14.919 12.3117 14.0884C12.3652 13.2311 13.0428 12.5923 13.9144 12.5758L14.5162 12.5669H18.4203L18.5148 12.5796C18.4688 13.2654 18.7796 13.7315 19.374 14.0046C19.6722 14.1353 19.9945 14.1989 20.3189 14.1913C22.7634 14.1913 25.2066 14.1913 27.6547 14.1913C27.6162 15.0803 27.1126 15.6213 26.2323 15.7153H23.0804H21.4964H20.3774L18.5161 15.7115Z" fill="#FECF5B"/>
<path d="M27.651 14.1885C25.2066 14.1885 22.7634 14.1885 20.3152 14.1885C19.9907 14.1962 19.6685 14.1325 19.3702 14.0018C18.7759 13.7288 18.4651 13.2627 18.5111 12.5769L25.4876 12.5654C25.7362 12.5654 25.9774 12.5654 26.2211 12.5756C27.0629 12.6239 27.6659 13.3084 27.651 14.1885Z" fill="#FEDF76"/>
<path d="M18.4203 12.5656H14.5162C13.5973 11.9865 12.6511 11.4607 11.8019 10.7597C9.25305 8.6438 7.8692 5.97039 7.99851 2.55529C8.02462 1.85423 8.26583 1.28526 8.88253 0.941084C9.16417 0.768718 9.49009 0.686953 9.81785 0.706434C10.1456 0.725915 10.4601 0.845739 10.7202 1.05031C11.2176 1.4148 11.7796 1.54435 12.3714 1.59134C12.2989 3.06367 12.5691 4.53258 13.1597 5.87768C13.8025 7.33821 14.8755 8.44187 16.0853 9.43376C16.7816 10.0015 17.535 10.5107 18.0461 11.2867C18.3034 11.669 18.4887 12.078 18.4203 12.5656Z" fill="#ECAC45"/>
<path d="M18.5161 15.7114H20.3811L12.9309 28.2847C12.5492 27.9342 12.2035 27.5227 11.6291 27.5125C12.2931 26.3695 12.9508 25.2265 13.6185 24.0949C15.2191 21.3855 16.8218 18.6799 18.4265 15.9781C18.4652 15.8926 18.4952 15.8032 18.5161 15.7114Z" fill="#FEC144"/>
<path d="M21.4927 15.7114H23.0767C23.0767 18.3793 23.0734 21.0464 23.0667 23.7126C22.5818 23.5697 22.0671 23.5697 21.5822 23.7126C21.5822 21.2919 21.5822 18.8721 21.5822 16.4531C21.5874 16.2028 21.5573 15.953 21.4927 15.7114Z" fill="#FEC144"/>
<path d="M21.5822 23.719C22.0671 23.5761 22.5818 23.5761 23.0667 23.719C23.4497 24.1533 23.8824 24.5343 23.8289 25.2151C23.8177 25.5814 23.6828 25.9325 23.4471 26.2089C23.2115 26.4852 22.8895 26.6699 22.5358 26.7315C21.9763 26.8585 21.1955 26.433 20.9195 25.8577C20.7708 25.5345 20.7315 25.1699 20.8078 24.8214C20.8841 24.4728 21.0716 24.1601 21.341 23.9324C21.4243 23.865 21.5014 23.7901 21.5822 23.719Z" fill="#FEDE76"/>
<path d="M11.6254 27.5127C12.1998 27.5229 12.5455 27.9343 12.9272 28.2849C13.1895 29.0202 13.1895 29.7175 12.5678 30.2674C12.3184 30.4956 12.0027 30.6343 11.6689 30.6623C11.3351 30.6902 11.0015 30.606 10.719 30.4223C10.4438 30.2275 10.2346 29.9502 10.1204 29.6288C10.0061 29.3073 9.9924 28.9575 10.0811 28.6278C10.2589 27.9788 10.857 27.547 11.6254 27.5127Z" fill="#FEDE76"/>
</g>
<defs>
<clipPath id="clip0_739_1587">
<rect width="40" height="48.75" fill="white"/>
</clipPath>
</defs>
</svg>
