<svg width="25" height="24" viewBox="0 0 25 24" fill="none" xmlns="http://www.w3.org/2000/svg">
<g clip-path="url(#clip0_739_1107)">
<path d="M23.8399 0C24.3435 0.185685 24.5204 0.550249 24.4961 1.07717C24.3931 3.64467 24.0567 6.17037 23.2877 8.63483C22.3885 11.5163 20.7095 13.8223 18.2266 15.5159C16.3124 16.8205 14.3379 18.0435 12.4023 19.3073C11.6965 19.7681 11.0082 20.2562 10.3121 20.7296C9.80758 21.0728 9.4508 21.0397 9.0211 20.61C7.30813 18.9016 5.59614 17.1909 3.88512 15.4779C3.46222 15.056 3.43306 14.7002 3.75387 14.2063C5.28148 11.8731 6.80455 9.53992 8.32308 7.20671C9.13442 5.93448 10.1072 4.77278 11.2172 3.75064C12.3119 2.75708 13.5922 2.06489 14.965 1.53992C17.0571 0.739823 19.2328 0.316928 21.4591 0.133187C22.0022 0.0878194 22.5459 0.0434237 23.0904 0H23.8399ZM18.8672 8.39859C18.8688 7.85272 18.7084 7.31865 18.4064 6.86392C18.1044 6.40919 17.6744 6.05422 17.1706 5.8439C16.6669 5.63359 16.1121 5.57737 15.5764 5.68236C15.0408 5.78734 14.5482 6.04882 14.1612 6.43372C13.7741 6.81862 13.5098 7.30966 13.4018 7.84475C13.2938 8.37983 13.3469 8.93493 13.5544 9.43983C13.7619 9.94474 14.1144 10.3768 14.5674 10.6813C15.0204 10.9859 15.5536 11.1493 16.0995 11.1508C16.8305 11.1498 17.5316 10.86 18.05 10.3445C18.5684 9.82905 18.8621 9.12963 18.8672 8.39859Z" fill="#A33596"/>
<path d="M0.501953 22.5465C0.564172 22.1236 0.608892 21.6968 0.696387 21.2826C0.978317 19.8691 1.51204 18.5606 2.46574 17.4639C2.76322 17.1101 3.12682 16.8184 3.44861 16.5083C3.68873 16.6327 3.72665 16.7465 3.63429 16.9497C3.05099 18.2242 2.7467 19.5745 2.5649 20.956C2.51921 21.3099 2.48616 21.6657 2.44241 22.0662C3.00238 21.9962 3.52735 21.9418 4.04746 21.865C5.2833 21.6849 6.49007 21.343 7.63672 20.8481C7.79713 20.7781 7.80005 20.7829 7.9692 21.0065C7.62718 21.5276 7.19021 21.9798 6.68108 22.3394C5.15088 23.4409 3.41847 23.9328 1.5519 23.9989C1.00845 24.0174 0.676944 23.7413 0.501953 23.2493V22.5465Z" fill="#A33596"/>
<path d="M12.6773 23.8591L10.699 21.8856L16.6224 17.9668L16.708 18.0261C16.603 18.415 16.5242 18.8038 16.3881 19.183C15.9993 20.2524 15.3635 21.1837 14.5945 22.012C14.017 22.6352 13.3793 23.201 12.7678 23.792C12.7395 23.8169 12.7093 23.8393 12.6773 23.8591Z" fill="#A33596"/>
<path d="M2.61827 13.7978L0.641846 11.8195C0.730313 11.7125 0.830447 11.5852 0.938358 11.4636C2.03886 10.2125 3.23754 9.07308 4.76191 8.3527C5.26549 8.11743 5.82255 8.00563 6.35627 7.83939C6.42381 7.83218 6.49192 7.83218 6.55945 7.83939L2.61827 13.7978Z" fill="#A33596"/>
</g>
<defs>
<clipPath id="clip0_739_1107">
<rect width="23.9961" height="24" fill="white" transform="translate(0.501953)"/>
</clipPath>
</defs>
</svg>
