<svg width="16" height="16" viewBox="0 0 16 16" fill="none" xmlns="http://www.w3.org/2000/svg">
<path d="M16 15.1632L11.5307 10.6938C12.6047 9.40448 13.1402 7.75068 13.026 6.07649C12.9117 4.40231 12.1564 2.83663 10.9171 1.70516C9.67784 0.5737 8.05008 -0.036435 6.37243 0.00168439C4.69478 0.0398038 3.09641 0.723243 1.90983 1.90983C0.723243 3.09641 0.0398038 4.69478 0.00168439 6.37243C-0.036435 8.05008 0.5737 9.67784 1.70516 10.9171C2.83663 12.1564 4.40231 12.9117 6.07649 13.026C7.75068 13.1402 9.40448 12.6047 10.6938 11.5307L15.1632 16L16 15.1632ZM1.20478 6.53106C1.20478 5.47762 1.51716 4.44784 2.10242 3.57194C2.68768 2.69604 3.51953 2.01335 4.49278 1.61022C5.46603 1.20709 6.53697 1.10161 7.57016 1.30712C8.60336 1.51264 9.55241 2.01992 10.2973 2.76481C11.0422 3.50971 11.5495 4.45876 11.755 5.49195C11.9605 6.52515 11.855 7.59609 11.4519 8.56934C11.0488 9.54259 10.3661 10.3744 9.49018 10.9597C8.61428 11.545 7.5845 11.8573 6.53106 11.8573C5.11892 11.8558 3.76507 11.2941 2.76654 10.2956C1.76801 9.29705 1.20635 7.9432 1.20478 6.53106Z" fill="#A33596"/>
</svg>
