<svg width="84" height="84" viewBox="0 0 84 84" fill="none" xmlns="http://www.w3.org/2000/svg">
<path d="M40.0247 10.1063C40.3857 10.6063 40.5746 11.2101 40.5628 11.8268C40.5509 12.4434 40.339 13.0395 39.959 13.5253C37.7737 16.321 33.1406 21.9188 28.5337 25.3181C22.8506 29.5181 17.6728 31.4016 15.0347 32.1694C13.8665 32.5106 12.6197 32.0578 11.9175 31.0669C10.185 28.6322 7.42873 23.415 8.51154 16.0322C10.0406 5.5322 22.0697 0.465948 29.8659 2.98595C37.6622 5.50595 40.0247 10.1063 40.0247 10.1063Z" fill="#FFC107"/>
<path d="M16.0781 30.2072C15.3103 30.5287 14.6146 29.6297 15.1068 28.9669C16.5506 27.0375 19.3528 23.8744 24.465 19.7531C30.0103 15.2841 33.9412 13.7025 36.0871 13.1447C36.8287 12.9544 37.3996 13.7878 36.9534 14.4112C35.5031 16.4456 32.4515 20.16 27.4575 23.7234C22.6143 27.1819 18.5062 29.1834 16.0781 30.2072Z" fill="url(#paint0_radial_282_2137)"/>
<path d="M21.4791 5.73563C21.781 7.03501 23.4216 7.48782 25.0097 7.21876C26.7291 6.93001 28.8947 6.6872 28.6913 4.94157C28.4813 3.13688 25.6069 3.20907 24.5438 3.26813C22.9885 3.36001 21.21 4.5872 21.4791 5.73563Z" fill="#FFEE58"/>
<path d="M55.2891 2.4412C63.1378 0.328071 74.6616 3.03182 76.9716 16.6293C77.851 21.794 75.7969 26.3681 74.3597 28.8093C73.651 30.0168 72.2663 30.6599 70.8947 30.3843C68.2172 29.8462 63.2297 28.3434 56.5491 24.1696C52.8347 21.8531 47.7816 17.3381 44.9203 14.6803C43.6275 13.4793 43.5028 11.4646 44.6644 10.1324C46.935 7.52713 50.9316 3.61588 55.2891 2.4412Z" fill="#FFC107"/>
<path d="M48.1819 14.7656C47.7685 14.3521 48.1622 13.6565 48.7332 13.8009C51.24 14.4309 55.8666 15.8418 59.9747 18.4078C64.1878 21.0459 68.4469 25.0556 70.606 27.2015C71.0325 27.6215 70.6125 28.3303 70.035 28.1596C67.3969 27.3918 62.5472 25.6856 57.75 22.4503C52.8741 19.1624 49.77 16.3471 48.1819 14.7656Z" fill="url(#paint1_radial_282_2137)"/>
<path d="M54.856 7.76997C52.2638 8.58372 51.5353 6.75278 52.92 5.36153C53.9175 4.35747 58.1241 2.56591 61.7728 3.32716C64.1813 3.83247 64.936 7.30403 61.5431 7.2581C59.2331 7.22528 58.0322 6.77247 54.856 7.76997Z" fill="#FFEE58"/>
<path d="M72.2006 78.7828C64.0303 73.6444 58.5572 63.6366 57.5597 52.0078C56.6606 41.5013 59.2068 30.8635 61.2543 22.3191L65.4543 24.2288C63.4987 32.4057 61.9631 41.895 62.79 51.555C63.6431 61.5497 68.2106 70.0678 74.9962 74.3335L72.2006 78.7828Z" fill="#03A9F4"/>
<path d="M39.7556 76.9715L37.59 72.1875C40.156 71.0259 41.6391 67.6593 40.7597 64.9884C40.3331 63.6825 39.4144 62.4356 38.4497 61.1165C37.6622 60.0403 36.8419 58.9247 36.1725 57.645C34.4269 54.2981 34.0135 50.295 35.0503 46.6659C35.5753 44.835 36.4088 43.214 37.2225 41.6456C38.1413 39.8737 39.001 38.2069 39.2241 36.5269C39.4275 34.9715 39.06 33.3244 38.2069 32.0053C37.4325 30.8175 36.2381 29.7937 34.9716 28.7175C34.0135 27.8972 33.016 27.0506 32.1038 26.0531C29.9447 23.6906 29.1047 20.8753 29.1178 17.7319L32.7731 16.3472C32.7731 16.3472 33.436 19.9172 34.3285 21.3412C35.2669 22.8309 36.6647 23.8415 37.9903 24.9703C39.4866 26.25 41.4225 27.3197 42.6103 29.1572C44.1328 31.5065 44.7956 34.4465 44.4281 37.229C44.0869 39.8147 42.9647 41.9803 41.8819 44.0737C41.16 45.4715 40.4775 46.7906 40.0969 48.1228C39.4275 50.4722 39.69 53.0644 40.8253 55.23C41.311 56.1618 41.9738 57.0675 42.6825 58.0322C43.8506 59.6268 45.0581 61.2675 45.7472 63.3675C47.4731 68.5847 44.7825 74.7009 39.7556 76.9715Z" fill="#03A9F4"/>
<path d="M6.89715 80.9222L3.79309 76.6894C23.6972 62.1075 25.8168 40.7531 24.4125 29.8725L28.3762 28.6584C29.9315 40.6875 28.9734 64.7522 6.89715 80.9222Z" fill="#F48FB1"/>
<path d="M62.2912 48.1424L62.639 48.4115C62.5997 46.2524 62.7047 44.0803 62.9081 41.9278C61.1494 40.4643 59.5087 38.8959 58.3275 37.0584C58.2947 37.0059 58.2684 36.9534 58.2356 36.9009C57.8812 39.2634 57.6056 41.6784 57.4744 44.1131C59.0428 45.6159 60.7228 46.9284 62.2912 48.1424Z" fill="#0076C6"/>
<path d="M75.4228 62.5734L70.6584 60.3619C71.8724 57.75 70.8553 54.5934 69.5034 52.5131C67.7446 49.8094 64.9753 47.6569 62.2912 45.5765C59.4103 43.3453 56.1487 40.8187 53.9043 37.3209C49.7765 30.8962 50.5049 22.8965 55.1578 16.8394L58.9706 18.9722C55.6237 23.3362 55.3546 29.8528 58.3209 34.4794C60.0731 37.2159 62.8359 39.3487 65.5068 41.4225C68.3943 43.6603 71.6624 46.1934 73.9068 49.6453C76.6106 53.8125 77.1946 58.7672 75.4228 62.5734Z" fill="#F44336"/>
<path d="M5.89963 60.7622C4.91526 55.1972 8.98401 52.3162 11.1693 50.7675C11.4318 50.5837 11.7534 50.3541 11.9765 50.1769C11.9568 49.7109 11.6418 49.1269 11.0512 48.1359C10.0799 46.5019 8.75432 44.2575 9.77151 41.4028C10.6574 38.9222 13.2299 38.1019 14.9362 37.1437C16.3931 36.3234 17.4496 35.3259 17.9746 33.6591C18.5849 31.7166 18.1584 26.8341 18.1584 26.8341L21.3609 24.9637C21.3609 24.9637 22.3715 29.6297 22.3715 32.0053C22.3715 38.7384 18.6374 40.4578 17.0624 41.3437C15.9731 41.9541 14.9428 42.5316 14.7196 43.1616C14.5556 43.6209 14.7853 44.1394 15.5728 45.465C16.5178 47.0531 17.804 49.2384 16.964 52.0275C16.5571 53.3859 15.4153 54.1997 14.2078 55.0528C12.0684 56.5687 10.6903 57.7237 11.0709 59.85L5.89963 60.7622Z" fill="#F44336"/>
<path d="M49.2516 53.9831C46.9153 53.4253 45.3206 52.034 43.89 50.8528L47.2369 46.8037C47.2369 46.8037 48.4247 48.569 51.03 49.3828L49.2516 53.9831Z" fill="#F44336"/>
<path d="M45.0385 24.4388L41.16 22.1616L43.9688 17.7188L47.8538 19.9959L45.0385 24.4388Z" fill="#F44336"/>
<path d="M55.1053 74.5238L49.875 71.2754L53.9109 66.7866L57.9469 70.6191L55.1053 74.5238Z" fill="#F44336"/>
<path d="M71.6671 39.4846L74.7449 35.2314L79.3124 38.5363L76.234 42.7895L71.6671 39.4846Z" fill="#FB8C00"/>
<path d="M34.709 37.4457L30.0759 34.2432L32.4844 31.0472L37.1109 34.2497L34.709 37.4457Z" fill="#F44336"/>
<path d="M40.3135 43.0434C40.3135 43.0434 41.206 43.0106 42.315 43.2271C43.1157 41.6521 43.8769 40.0115 44.2707 38.1675C42.9057 37.859 41.8097 38.0099 41.8097 38.0099L40.3135 43.0434Z" fill="#0076C6"/>
<path d="M46.5413 43.6603C44.7103 42.0984 41.6522 42.21 41.6522 42.21L43.1419 37.1765C43.1419 37.1765 46.5282 36.704 48.8119 39.0862L46.5413 43.6603Z" fill="#FB8C00"/>
<path d="M3.04565 64.5126L7.8074 64.2219L8.127 69.4621L3.36525 69.7528L3.04565 64.5126Z" fill="#FB8C00"/>
<path d="M28.3304 63.5972L25.3051 59.3054C26.6438 58.3604 27.871 57.2382 28.9341 55.9847L32.9372 59.3841C31.5834 60.9752 30.0357 62.3906 28.3304 63.5972Z" fill="#FB8C00"/>
<path d="M28.3697 75.7246C26.7947 74.4253 25.1278 73.2178 23.4084 72.1284L26.2172 67.6921C28.1203 68.8931 29.9644 70.2318 31.71 71.669L28.3697 75.7246Z" fill="#F44336"/>
<path d="M57.6516 52.559C57.8354 54.7312 58.0913 56.2931 58.5769 58.3275L62.0354 55.5515L58.6688 51.345L57.6516 52.559Z" fill="#0076C6"/>
<path d="M52.0865 55.9086L57.3759 51.6686L60.6598 55.7642L55.3704 60.0049L52.0865 55.9086Z" fill="#FFC107"/>
<path d="M50.2819 82.2018C49.3631 80.5153 48.3328 78.8681 47.2172 77.3062L51.4894 74.2546C52.7341 75.9959 53.8694 77.8129 54.8887 79.6949L50.2819 82.2018Z" fill="#FB8C00"/>
<defs>
<radialGradient id="paint0_radial_282_2137" cx="0" cy="0" r="1" gradientUnits="userSpaceOnUse" gradientTransform="translate(26.0281 21.6996) scale(9.91069)">
<stop offset="0.376" stop-color="#AF5700"/>
<stop offset="1" stop-color="#8F4700"/>
</radialGradient>
<radialGradient id="paint1_radial_282_2137" cx="0" cy="0" r="1" gradientUnits="userSpaceOnUse" gradientTransform="translate(59.3913 20.9803) scale(13.9282)">
<stop offset="0.376" stop-color="#AF5700"/>
<stop offset="1" stop-color="#8F4700"/>
</radialGradient>
</defs>
</svg>
