<svg width="32" height="32" viewBox="0 0 32 32" fill="none" xmlns="http://www.w3.org/2000/svg">
<g clip-path="url(#clip0_299_2612)">
<path d="M32 14.9301V31.1239C31.7479 31.7914 31.249 32.0031 30.574 31.9991C27.2632 31.9848 23.9524 31.9927 20.6416 31.9927H1.36958C0.405629 31.9927 0.000783066 31.5806 0 30.6067C0 25.5286 0 20.4508 0 15.3733C0 14.5506 0.313227 14.1758 1.10804 14.0334L3.11895 14.0381C3.79161 14.0381 4.46348 14.0381 5.13613 14.0437C5.35696 14.0437 5.54724 14.0381 5.61224 13.7636C5.64356 13.63 5.77355 13.5838 5.89179 13.5361C6.13141 13.4382 6.38121 13.4788 6.62787 13.47C7.1306 13.6061 7.63646 13.4963 8.14154 13.47H6.93562C6.90325 13.4171 6.86545 13.3677 6.82286 13.3228C6.63257 13.1637 6.56444 12.9584 6.66624 12.7332C6.71101 12.6197 6.79132 12.5242 6.89478 12.4617C6.99824 12.3991 7.11909 12.3729 7.23866 12.3871C7.39358 12.3963 7.54889 12.3963 7.70381 12.3871C7.79073 12.3831 7.90975 12.4317 7.95282 12.3203C7.98728 12.2311 7.88469 12.1778 7.83301 12.1174C7.75079 12.0211 7.75471 11.9041 7.74218 11.7903C7.81187 11.4124 7.9771 11.2533 8.34122 11.2493C9.00135 11.2437 9.66069 11.2533 10.3208 11.2564C9.85097 11.5747 9.81339 11.885 10.1955 12.2908C9.77658 12.3903 9.34511 12.2813 8.92461 12.3935H10.19C10.2052 12.4217 10.2231 12.4483 10.2433 12.473C10.4344 12.6624 10.5565 12.8709 10.4297 13.1494C10.3028 13.4279 10.0687 13.4915 9.78441 13.478C9.56359 13.4676 9.3365 13.4438 9.08513 13.5098C9.17675 13.6212 9.27229 13.6904 9.29891 13.7803C9.37722 14.0477 9.56907 14.0557 9.78911 14.0477C10.0593 14.0381 10.3302 14.0397 10.6004 14.0477C10.8353 14.0549 11.0405 14.062 11.1399 13.7676C11.1931 13.6085 11.3678 13.5186 11.5408 13.4995C11.7366 13.478 11.9324 13.482 12.132 13.4748C12.6551 13.6069 13.1814 13.5034 13.7068 13.4748H12.4374C12.4164 13.4371 12.3921 13.4014 12.3646 13.3682C12.1782 13.1844 12.0772 12.9783 12.1978 12.7165C12.3184 12.4547 12.5322 12.368 12.811 12.3879C13.0459 12.4038 13.2753 12.3879 13.6034 12.3879C13.385 12.1747 13.244 12.033 13.244 11.8142C13.244 11.7959 13.244 11.7768 13.244 11.7577C13.3795 11.3599 13.5283 11.2525 13.9276 11.2461C14.0623 11.2461 14.1978 11.2397 14.3332 11.2357L15.9902 11.2429C16.1774 11.2429 16.3653 11.235 16.5509 11.2501C16.8132 11.2724 17.0027 11.4028 17.0521 11.6829C17.1045 11.9797 16.9988 12.2025 16.72 12.3195C16.4946 12.4053 16.2487 12.4192 16.0153 12.3593C15.8399 12.3227 15.6676 12.2964 15.4953 12.3664C15.3387 12.3664 15.1821 12.3768 15.0255 12.3704C14.7428 12.3593 14.4961 12.4317 14.3904 12.7213C14.2847 13.0109 14.3904 13.2385 14.6167 13.4199C14.7812 13.9387 14.9104 14.0397 15.4084 14.0397C15.6676 14.0397 15.9276 14.0318 16.1868 14.0397C16.388 14.0477 16.547 14.0262 16.6245 13.7923C16.6754 13.6387 16.8124 13.5583 16.9769 13.5146C17.1938 13.4565 17.4091 13.4708 17.6268 13.466C18.1483 13.5981 18.6746 13.4923 19.1992 13.466H17.9377C17.923 13.4377 17.9055 13.411 17.8852 13.3865C17.6785 13.1804 17.6182 12.9234 17.7286 12.6656C17.839 12.4078 18.0826 12.3736 18.3363 12.3831C18.5579 12.3927 18.7795 12.3831 19.099 12.3831C18.8735 12.1778 18.8194 11.9853 18.7466 11.8086C18.7466 11.7895 18.7466 11.7704 18.7466 11.7514C18.9244 11.3161 19.0293 11.2445 19.4811 11.2397C19.6041 11.2397 19.7262 11.2294 19.8492 11.2246L21.337 11.2517C20.8671 11.5874 20.8437 11.9049 21.2587 12.3131H19.9784V12.3839H21.1851C21.4435 12.5637 21.5688 12.804 21.4678 13.1175C21.3667 13.431 21.095 13.4748 20.8092 13.4645C20.6432 13.4581 20.4764 13.4645 20.3104 13.4645C20.1624 13.4684 20.1428 13.513 20.2164 13.6594C20.373 13.9665 20.5884 14.0843 20.9282 14.0405C21.1976 14.0171 21.4685 14.0171 21.7379 14.0405C21.9384 14.0509 22.0793 13.9952 22.1506 13.7915C22.2038 13.6379 22.3338 13.5759 22.4764 13.5233C22.7113 13.4366 22.9462 13.4764 23.1858 13.4653C23.8765 13.6045 24.5703 13.4859 25.2625 13.4653H23.5022C23.4807 13.43 23.4543 13.3981 23.4239 13.3706C23.1772 13.2154 23.1498 12.9807 23.2218 12.734C23.3001 12.4611 23.5194 12.3784 23.7833 12.3855C23.9697 12.3903 24.156 12.3855 24.3432 12.3855C24.5108 12.3855 24.6024 12.3362 24.4489 12.1731C24.2625 11.9749 24.2751 11.7442 24.3761 11.5286C24.4771 11.3129 24.683 11.2326 24.9242 11.2421C25.0808 11.2485 25.2374 11.2421 25.3941 11.2421C26.109 11.2421 26.8247 11.2421 27.5404 11.2485C27.8732 11.2525 28.0995 11.4498 28.1348 11.7362C28.17 12.0227 28.0181 12.2272 27.7025 12.3274C27.3765 12.3093 27.0496 12.3344 26.73 12.4022C26.6689 12.3959 26.607 12.3831 26.5459 12.3823C26.3298 12.3823 26.1137 12.3728 25.8983 12.3823C25.7896 12.3856 25.6849 12.4248 25.6001 12.494C25.5153 12.5632 25.4551 12.6587 25.4285 12.7658C25.3251 13.0841 25.5068 13.2791 25.7229 13.4565C25.7347 13.7636 26.0064 14.093 26.2711 14.0986C27.0769 14.1058 27.8826 14.0986 28.6884 14.0986C28.7611 14.1031 28.8329 14.0798 28.8897 14.0334H30.9045C31.4558 14.0843 31.8097 14.4026 32 14.9301ZM15.9847 30.8732H30.4487C30.8747 30.8732 30.8755 30.8732 30.8755 30.4348V15.6391C30.8755 15.1847 30.8755 15.1839 30.4331 15.1839H1.5677C1.12527 15.1839 1.12527 15.1839 1.12527 15.6383V30.3958C1.12527 30.8661 1.12527 30.8661 1.58336 30.8661L15.9847 30.8732Z" fill="#FEC73D"/>
<path d="M30.8833 7.31006C30.8833 9.55176 30.8862 11.7929 30.8919 14.0336H28.8771C29.112 13.8561 29.3133 13.6596 29.2044 13.3175C29.0956 12.9753 28.8129 12.9156 28.5052 12.9077C28.4323 12.9077 28.3595 12.9077 28.2867 12.9077C28.2139 12.9077 28.1395 12.891 28.1214 12.7987C28.0721 12.552 27.8568 12.4621 27.6915 12.3213C28.0048 12.221 28.1614 12.0141 28.1238 11.7301C28.0862 11.446 27.8623 11.2463 27.5295 11.2423C26.8137 11.2336 26.098 11.2376 25.3831 11.236C25.2797 10.823 25.1184 10.679 24.7151 10.6742C23.8746 10.6668 23.0344 10.6668 22.1944 10.6742C21.7833 10.6742 21.6267 10.8142 21.5241 11.2312L21.3401 11.2559L19.8523 11.2288C19.756 10.8174 19.6001 10.6806 19.1835 10.6782C18.354 10.6729 17.5245 10.6729 16.6949 10.6782C16.2666 10.6782 16.1061 10.8158 15.9957 11.2407L14.3403 11.236C14.2573 10.8524 14.1053 10.6901 13.7373 10.6846C12.8551 10.6702 11.9736 10.6702 11.0929 10.6846C10.728 10.6893 10.562 10.8628 10.4923 11.2352L10.3169 11.2566C9.65675 11.2566 8.9974 11.2439 8.33728 11.2495C7.97002 11.2535 7.80793 11.4126 7.73823 11.7906C7.03347 11.7977 6.32871 11.8065 5.62395 11.8104C5.38042 11.8104 5.13297 11.8558 5.05545 12.1048C4.96931 12.3817 4.79469 12.3873 4.58013 12.3762C4.33268 12.3642 4.06095 12.3762 3.96385 12.6395C3.86127 12.9133 3.68821 12.9204 3.46034 12.9204C3.21916 12.9204 2.98111 12.9634 2.84407 13.21C2.68197 13.5005 2.76106 13.7416 3.11971 14.0384L1.10645 14.0336C1.10958 11.7924 1.11245 9.55123 1.11506 7.31006H14.3058C14.3183 7.48829 14.3238 7.66652 14.3442 7.84396C14.3888 8.23305 14.5658 8.42879 14.9409 8.43754C15.6456 8.45346 16.3504 8.45346 17.0552 8.43754C17.431 8.42879 17.608 8.23305 17.6526 7.84396C17.6722 7.66652 17.6785 7.48829 17.691 7.31006H30.8833Z" fill="#AE6F4D"/>
<path d="M15.9847 30.8734H1.58334C1.12524 30.8734 1.12524 30.8734 1.12524 30.4031V15.6384C1.12524 15.1849 1.12524 15.1841 1.56768 15.1841H30.4331C30.8747 15.1841 30.8755 15.1841 30.8755 15.6392V30.431C30.8755 30.8686 30.8755 30.8694 30.4487 30.8694L15.9847 30.8734ZM29.7604 19.6248C29.7604 18.6198 29.7604 17.6149 29.7722 16.6099C29.7722 16.3609 29.6766 16.3116 29.4589 16.3124C25.8046 16.3171 22.1503 16.3171 18.496 16.3124C18.2548 16.3124 18.1937 16.3991 18.1992 16.6306C18.2118 17.1805 18.193 17.7319 18.2063 18.2817C18.2272 18.7478 18.1361 19.212 17.9408 19.6343C17.6192 20.1709 17.1061 20.5606 16.5086 20.722C16.1751 20.7833 15.8335 20.7833 15.5 20.722C14.9022 20.5611 14.3889 20.1713 14.0678 19.6343C13.8722 19.2122 13.781 18.7478 13.8023 18.2817C13.8148 17.7207 13.8023 17.1598 13.8078 16.5988C13.8078 16.3999 13.7545 16.3179 13.5439 16.3179C9.86818 16.3227 6.19221 16.3227 2.51597 16.3179C2.2928 16.3179 2.23172 16.3975 2.23328 16.6155C2.24346 17.6205 2.24111 18.6254 2.24346 19.6304C2.17484 20.0124 2.17272 20.4037 2.2372 20.7865L2.23015 25.2733C2.17925 25.6402 2.17925 26.0125 2.23015 26.3794C2.23015 27.3421 2.23224 28.3046 2.23642 29.2669C2.23642 29.7332 2.23642 29.734 2.6859 29.734H22.1709C24.5749 29.734 26.9797 29.7268 29.3845 29.7419C29.7126 29.7419 29.7831 29.6409 29.7761 29.3305C29.7596 28.3471 29.7761 27.3636 29.7761 26.3794C29.827 26.0125 29.827 25.6402 29.7761 25.2733C29.7761 23.7775 29.7735 22.2818 29.7682 20.7865C29.8337 20.4019 29.831 20.0085 29.7604 19.6248ZM15.4491 17.4263C15.4679 17.4908 15.4679 17.6117 15.5274 17.665C15.7897 17.9085 15.7271 18.222 15.7326 18.5196C15.7307 18.6354 15.7359 18.7513 15.7482 18.8665C15.7514 18.8984 15.7609 18.9293 15.776 18.9574C15.7912 18.9854 15.8118 19.0101 15.8366 19.03C15.8614 19.0498 15.8898 19.0643 15.9202 19.0728C15.9507 19.0812 15.9824 19.0833 16.0137 19.079C16.0717 19.0807 16.1283 19.0605 16.1726 19.0223C16.2168 18.9841 16.2456 18.9306 16.2533 18.8721C16.2648 18.7885 16.27 18.7042 16.269 18.6198C16.2776 18.2801 16.2204 17.9419 16.4804 17.638C16.637 17.4597 16.5587 17.2067 16.3919 17.0317C16.3225 16.9517 16.2305 16.8955 16.1284 16.8707C16.0264 16.8459 15.9193 16.8538 15.8218 16.8932C15.5861 16.9783 15.4859 17.1614 15.4491 17.4263Z" fill="#ECAC45"/>
<path d="M21.5242 11.2335C21.6268 10.8205 21.7834 10.6829 22.1945 10.6805C23.0345 10.6752 23.8747 10.6752 24.7152 10.6805C25.1185 10.6805 25.2798 10.8293 25.3831 11.2422C25.2265 11.2422 25.0699 11.251 24.9133 11.2422C24.6784 11.2327 24.4701 11.3107 24.3652 11.5287C24.2602 11.7467 24.2516 11.9751 24.438 12.1732C24.5946 12.3363 24.4998 12.3841 24.3323 12.3856C24.1451 12.3856 23.9587 12.3904 23.7724 12.3856C23.5085 12.3785 23.2908 12.4612 23.2109 12.7342C23.1389 12.9816 23.1663 13.2163 23.413 13.3707C23.4434 13.3983 23.4698 13.4302 23.4913 13.4654H23.178C22.9431 13.4765 22.7019 13.4367 22.4686 13.5235C22.3261 13.576 22.1961 13.638 22.1428 13.7916C22.0716 13.9953 21.9306 14.051 21.7301 14.0407C21.4607 14.0172 21.1899 14.0172 20.9204 14.0407C20.5806 14.0844 20.3637 13.9667 20.2086 13.6595C20.135 13.5131 20.1546 13.4686 20.3026 13.4646C20.4686 13.4646 20.6354 13.4574 20.8014 13.4646C21.0872 13.4749 21.3558 13.4431 21.46 13.1177C21.561 12.8042 21.4357 12.5607 21.1773 12.3841L21.4905 12.3793C21.7072 12.3767 21.9236 12.3629 22.1389 12.3379C22.2738 12.3202 22.3971 12.251 22.4836 12.1443C22.5702 12.0376 22.6135 11.9014 22.6048 11.7634C22.5943 11.6253 22.534 11.496 22.4354 11.4003C22.3369 11.3045 22.207 11.2491 22.0708 11.2446C21.8977 11.2359 21.7106 11.2383 21.5242 11.2335Z" fill="#FFB134"/>
<path d="M15.9941 11.2429C16.1046 10.818 16.2651 10.6859 16.6934 10.6803C17.5235 10.6756 18.353 10.6756 19.182 10.6803C19.5986 10.6803 19.7544 10.8196 19.8507 11.231C19.7278 11.2357 19.6056 11.2445 19.4827 11.2461C19.0309 11.2508 18.9259 11.3256 18.7482 11.7577H17.2377V11.815H18.7482C18.821 11.9948 18.875 12.1842 19.1006 12.3895C18.7811 12.3895 18.5595 12.3966 18.3379 12.3895C18.0841 12.3799 17.839 12.4213 17.7302 12.6719C17.6214 12.9226 17.6785 13.1867 17.8868 13.3928C17.907 13.4174 17.9246 13.444 17.9393 13.4724H17.6339C17.4162 13.4772 17.2008 13.4628 16.9839 13.5209C16.8195 13.5647 16.6825 13.6451 16.6316 13.7986C16.5533 14.0326 16.3966 14.054 16.1938 14.0461C15.9346 14.0357 15.6747 14.0461 15.4155 14.0461C14.9174 14.0461 14.789 13.945 14.6238 13.4262C14.8657 13.5169 15.1171 13.4875 15.3653 13.4843C15.7287 13.4796 15.9511 13.2997 15.9918 12.9982C16.0317 12.7093 15.8579 12.4881 15.5008 12.3728C15.6731 12.3027 15.8454 12.329 16.0208 12.3656C16.2542 12.4255 16.5001 12.4116 16.7255 12.3258C17.0043 12.2073 17.11 11.9845 17.0575 11.6893C17.0082 11.4092 16.8187 11.2787 16.5564 11.2564C16.3692 11.2349 16.1813 11.2445 15.9941 11.2429Z" fill="#FFB134"/>
<path d="M10.4923 11.2351C10.562 10.8628 10.7272 10.6893 11.0929 10.6845C11.9731 10.6729 12.8535 10.6729 13.7342 10.6845C14.0991 10.6901 14.2541 10.8524 14.3371 11.2359C14.2017 11.2399 14.0662 11.2447 13.9315 11.2463C13.5321 11.2527 13.3834 11.3633 13.2479 11.7579H11.7248V11.8144H13.244C13.244 12.0332 13.3849 12.1748 13.6034 12.3897C13.2753 12.3897 13.0419 12.4024 12.8109 12.3897C12.5322 12.3698 12.32 12.4533 12.1978 12.7183C12.0756 12.9833 12.1782 13.1862 12.3646 13.37C12.3919 13.4019 12.4162 13.4362 12.4374 13.4726H12.1297C11.9323 13.4798 11.7342 13.4726 11.5385 13.4973C11.3646 13.514 11.1908 13.6071 11.1375 13.7662C11.0381 14.0606 10.8314 14.0535 10.598 14.0463C10.3278 14.0391 10.0569 14.0375 9.78674 14.0463C9.5667 14.0543 9.37641 14.0463 9.29654 13.7789C9.26992 13.689 9.17438 13.6198 9.08276 13.5084C9.33413 13.4424 9.56122 13.4662 9.78204 13.4766C10.0663 13.4901 10.2981 13.4312 10.4273 13.148C10.5565 12.8647 10.432 12.661 10.2409 12.4716C10.2207 12.4469 10.2029 12.4203 10.1877 12.3921L10.4508 12.3841C10.6583 12.3762 10.8682 12.3841 11.0725 12.3571C11.4038 12.3109 11.5847 12.0889 11.5729 11.7794C11.5612 11.4699 11.3482 11.2702 11.0248 11.2495C10.8462 11.2375 10.6693 11.2391 10.4923 11.2351Z" fill="#FFB134"/>
<path d="M3.11962 14.0381C2.76097 13.7413 2.68188 13.5002 2.84398 13.2098C2.98101 12.9631 3.21906 12.9202 3.46025 12.9202C3.68812 12.9202 3.86118 12.913 3.96376 12.6393C4.06086 12.3791 4.33259 12.364 4.58003 12.3759C4.79459 12.387 4.97157 12.3815 5.05536 12.1046C5.13366 11.8555 5.38033 11.811 5.62386 11.8102C6.32862 11.8062 7.03338 11.7974 7.73814 11.7903C7.75302 11.9041 7.74675 12.021 7.82898 12.1173C7.88066 12.1778 7.98559 12.2311 7.94879 12.3202C7.90572 12.4316 7.78669 12.3831 7.69977 12.387C7.54485 12.3962 7.38954 12.3962 7.23463 12.387C7.11586 12.3737 6.99604 12.4001 6.89342 12.4623C6.79079 12.5245 6.71097 12.619 6.66612 12.7316C6.56667 12.9568 6.6348 13.1605 6.82274 13.3212C6.86611 13.3657 6.90469 13.4148 6.93785 13.4676H6.6301C6.38344 13.4763 6.13364 13.4358 5.89402 13.5336C5.77578 13.5814 5.64579 13.6275 5.61446 13.7612C5.54947 14.0357 5.35918 14.0437 5.13836 14.0413C4.46414 14.0365 3.79227 14.0397 3.11962 14.0381Z" fill="#FFB134"/>
<path d="M27.6916 12.3284C27.8568 12.466 28.0722 12.556 28.1215 12.8058C28.1395 12.8981 28.21 12.9132 28.2867 12.9148C28.3635 12.9164 28.4324 12.9148 28.5052 12.9148C28.8114 12.9228 29.0925 12.9777 29.2045 13.3246C29.3165 13.6715 29.1129 13.8601 28.8772 14.0407C28.8204 14.0871 28.7487 14.1104 28.6759 14.1059C27.8701 14.1059 27.0644 14.1099 26.2586 14.1059C25.9924 14.1059 25.7206 13.771 25.7104 13.4638C25.9156 13.4726 26.1216 13.4797 26.3267 13.4893C26.6141 13.5028 26.8749 13.4408 26.9861 13.14C27.0973 12.8392 26.9735 12.5918 26.7206 12.4095C27.0394 12.3397 27.3658 12.3124 27.6916 12.3284Z" fill="#FFB134"/>
<path d="M21.5241 11.2334C21.7105 11.2382 21.8977 11.2334 22.0825 11.2509C22.2187 11.2554 22.3486 11.3108 22.4471 11.4065C22.5457 11.5023 22.606 11.6316 22.6165 11.7697C22.6252 11.9077 22.5819 12.0438 22.4953 12.1505C22.4088 12.2572 22.2855 12.3265 22.1506 12.3442C21.9353 12.3692 21.7189 12.383 21.5022 12.3855L21.2634 12.3195C20.8468 11.9113 20.8718 11.5938 21.3417 11.2581L21.5241 11.2334Z" fill="#FEFDF9"/>
<path d="M10.4922 11.2351C10.6692 11.2391 10.8462 11.2351 11.0216 11.2486C11.3481 11.2693 11.5619 11.4786 11.5697 11.7786C11.5775 12.0785 11.4037 12.3101 11.0725 12.3562C10.8681 12.3841 10.6582 12.3753 10.4507 12.3833L10.1899 12.2886C9.80781 11.8852 9.84539 11.5725 10.3152 11.2542L10.4922 11.2351Z" fill="#FEFDF9"/>
<path d="M15.4991 12.3682C15.8562 12.4835 16.0301 12.7047 15.9901 12.9936C15.9494 13.2951 15.727 13.475 15.3637 13.4797C15.1154 13.4797 14.8641 13.5124 14.6221 13.4216C14.3927 13.2402 14.2932 13.0031 14.3958 12.723C14.4984 12.443 14.7482 12.361 15.0309 12.3721C15.1867 12.3785 15.3433 12.3698 15.4991 12.3682Z" fill="#FDFDFD"/>
<path d="M26.719 12.403C26.9719 12.5853 27.0988 12.8255 26.9844 13.1335C26.8701 13.4414 26.6125 13.4963 26.3251 13.4828C26.1199 13.4732 25.914 13.4661 25.7088 13.4573C25.4896 13.2799 25.311 13.0826 25.4144 12.7667C25.4409 12.6595 25.5012 12.564 25.586 12.4948C25.6708 12.4256 25.7755 12.3864 25.8842 12.3831C26.0996 12.3736 26.3157 12.3831 26.5318 12.3831C26.596 12.3839 26.6579 12.3967 26.719 12.403Z" fill="#FEFDF9"/>
<path d="M23.189 13.4692H25.2657C24.5734 13.4899 23.8796 13.6069 23.189 13.4692Z" fill="#E1A136"/>
<path d="M12.1296 13.4702H13.7044C13.1789 13.4989 12.6527 13.6023 12.1296 13.4702Z" fill="#E1A136"/>
<path d="M17.6292 13.4702H17.9345H19.2015C18.68 13.4965 18.1538 13.6023 17.6292 13.4702Z" fill="#E1A136"/>
<path d="M10.19 12.2886L10.4492 12.3833L10.1861 12.3912H8.92065C9.34116 12.279 9.77263 12.388 10.19 12.2886Z" fill="#E1A136"/>
<path d="M21.2633 12.3196L21.5021 12.3856L21.1889 12.3904H19.9783V12.3196H21.2633Z" fill="#E1A136"/>
<path d="M6.62866 13.4702H8.14233C7.63725 13.4965 7.13139 13.6071 6.62866 13.4702Z" fill="#E1A136"/>
<path d="M18.7481 11.8151H17.2375V11.7578H18.7489C18.7494 11.7769 18.7491 11.796 18.7481 11.8151Z" fill="#E1A136"/>
<path d="M13.244 11.8143H11.7249V11.7578H13.2479C13.2479 11.7769 13.2479 11.796 13.244 11.8143Z" fill="#E1A136"/>
<path d="M14.3083 7.31238H1.11751C1.05721 7.21531 1.08149 7.1071 1.08149 7.00366C1.08149 5.12107 1.08149 3.23796 1.08149 1.35431C1.08149 0.583292 1.41194 0.160783 2.07363 0.0438179C2.23025 0.123386 2.18561 0.282524 2.18561 0.408242C2.18875 1.96672 2.18875 3.5252 2.18561 5.08368C2.18561 5.37887 2.19031 5.67328 2.18561 5.96848C2.18091 6.15626 2.25531 6.23662 2.44246 6.23105C2.73219 6.22389 3.02271 6.23105 3.31245 6.23105H28.6838C28.9743 6.23105 29.2656 6.22628 29.5553 6.23105C29.7441 6.23583 29.8161 6.15148 29.8114 5.96609C29.8036 5.66055 29.8075 5.35421 29.8059 5.04867C29.8023 3.45093 29.7981 1.85347 29.7934 0.256266C29.7903 0.21417 29.7956 0.171872 29.8091 0.131935C29.8226 0.0919986 29.8439 0.0552531 29.8717 0.0239258C30.5561 0.16317 30.9022 0.530777 30.9077 1.23416C30.9234 3.21939 30.9132 5.20542 30.9077 7.19064C30.902 7.23147 30.8909 7.27134 30.8748 7.3092H17.6841L14.3083 7.31238Z" fill="#FDC73D"/>
<path d="M3.39228 0.0373811C3.48625 0.0373811 3.57943 0.027832 3.6734 0.027832H28.4849C28.5475 0.027832 28.6101 0.027832 28.672 0.027832C28.6696 0.0354322 28.6693 0.0435817 28.6712 0.05133C28.6732 0.0590784 28.6773 0.0661067 28.683 0.0715949L28.6783 1.72025H3.3218L3.31006 0.0723901L3.39228 0.0373811Z" fill="#A9633F"/>
<path d="M3.39225 0.037278L3.31395 0.0754705C3.11661 0.0754705 2.92241 0.0699001 2.72117 0.0699001C2.25133 0.0699001 2.25133 0.0699006 2.25133 0.529806C2.25133 1.91483 2.25133 3.30011 2.25133 4.68566C2.25133 4.82013 2.28656 4.96256 2.19181 5.0835C2.19181 3.52502 2.19181 1.96654 2.19181 0.408066C2.19181 0.27837 2.2388 0.125598 2.07983 0.0436424C2.51584 -0.00581462 2.9558 -0.00794741 3.39225 0.037278Z" fill="#E1A136"/>
<path d="M28.6829 0.0747849C28.6772 0.0692967 28.6731 0.0622697 28.6712 0.0545213C28.6693 0.0467729 28.6695 0.0386235 28.672 0.0310233C29.0727 -0.00809288 29.476 -0.0102236 29.8771 0.0246577C29.8493 0.055985 29.828 0.0927299 29.8145 0.132667C29.801 0.172604 29.7957 0.214901 29.7988 0.256997C29.8035 1.85473 29.8077 3.4522 29.8113 5.0494C29.7448 4.94278 29.773 4.82342 29.773 4.70964C29.773 3.49384 29.773 2.27856 29.773 1.06382C29.7667 -0.019105 29.7667 -0.0191057 28.6829 0.0747849Z" fill="#C19A79"/>
<path d="M14.3081 7.31226H17.6925C17.68 7.49049 17.6737 7.66872 17.6541 7.84616C17.6095 8.23525 17.4325 8.43099 17.0567 8.43974C16.353 8.45565 15.6482 8.45565 14.9424 8.43974C14.5673 8.43099 14.3903 8.23525 14.3457 7.84616C14.3261 7.66872 14.3206 7.49049 14.3081 7.31226Z" fill="#FDB232"/>
<path d="M29.7668 20.7808C29.7699 22.2766 29.7725 23.7723 29.7746 25.2676C29.6289 25.2676 29.4833 25.2795 29.3376 25.2795H2.66327C2.51762 25.2795 2.37197 25.2716 2.22632 25.2676C2.22632 23.7723 2.22893 22.2766 2.23415 20.7808C2.39076 20.7808 2.54738 20.7728 2.70399 20.7728C6.82814 20.7728 10.9523 20.7728 15.0764 20.7728C15.219 20.7728 15.3693 20.8118 15.5016 20.7195C15.8351 20.7807 16.1767 20.7807 16.5102 20.7195C16.6324 20.8078 16.7718 20.7736 16.9018 20.7736C19.3387 20.7736 21.775 20.7736 24.2109 20.7736C26.0615 20.7736 27.9135 20.776 29.7668 20.7808Z" fill="#A9633F"/>
<path d="M29.7738 26.3737C29.7738 27.3579 29.7582 28.3414 29.7738 29.3249C29.7793 29.6352 29.7088 29.7386 29.3823 29.7362C26.9775 29.7211 24.5727 29.7283 22.1687 29.7283H2.68206C2.23337 29.7283 2.23337 29.7283 2.23258 29.2612C2.23258 28.2995 2.23049 27.337 2.22632 26.3737C2.37275 26.3737 2.51762 26.3625 2.66327 26.3625H29.3369C29.4825 26.3625 29.6282 26.3705 29.7738 26.3737Z" fill="#A9633F"/>
<path d="M2.23967 19.6247C2.23967 18.6197 2.23967 17.6148 2.22949 16.6098C2.22949 16.3958 2.28901 16.3115 2.51218 16.3123C6.18789 16.317 9.86387 16.317 13.5401 16.3123C13.7507 16.3123 13.8071 16.3918 13.804 16.5931C13.7954 17.1501 13.811 17.7151 13.7985 18.276C13.7773 18.7421 13.8684 19.2065 14.064 19.6287L2.23967 19.6247Z" fill="#AE6F4D"/>
<path d="M17.937 19.6296C18.1323 19.2073 18.2234 18.743 18.2025 18.2769C18.1892 17.7271 18.208 17.1757 18.1954 16.6259C18.1899 16.3983 18.251 16.3076 18.4922 16.3076C22.1465 16.3145 25.8008 16.3145 29.4551 16.3076C29.6744 16.3076 29.7731 16.3562 29.7684 16.6052C29.755 17.6102 29.759 18.6151 29.7566 19.62L17.937 19.6296Z" fill="#AE6F4D"/>
<path d="M29.7736 26.3738C29.628 26.3738 29.4823 26.3627 29.3367 26.3627H2.66312C2.51747 26.3627 2.3726 26.3698 2.22617 26.3738C2.17526 26.007 2.17526 25.6347 2.22617 25.2678C2.37182 25.2678 2.51747 25.2798 2.66312 25.2798H29.3375C29.4831 25.2798 29.6288 25.2718 29.7744 25.2678C29.8251 25.6347 29.8248 26.007 29.7736 26.3738Z" fill="#6C392C"/>
<path d="M2.23962 19.6248L14.0639 19.6295C14.3851 20.1665 14.8984 20.5563 15.4961 20.7172C15.3638 20.8095 15.2135 20.7705 15.0709 20.7705C10.9468 20.7705 6.82395 20.7705 2.70241 20.7705C2.5458 20.7705 2.38919 20.7761 2.23257 20.7785C2.16824 20.3965 2.17062 20.0059 2.23962 19.6248Z" fill="#6C3A2C"/>
<path d="M17.937 19.6295L29.7613 19.6248C29.8307 20.0067 29.8328 20.3982 29.7675 20.7809C27.9148 20.7777 26.0615 20.7751 24.2078 20.7729C21.7719 20.7729 19.3355 20.7729 16.8986 20.7729C16.7663 20.7729 16.6269 20.8071 16.5071 20.7188C17.104 20.5564 17.6162 20.1662 17.937 19.6295Z" fill="#6C3A2C"/>
<path d="M15.4492 17.4262C15.486 17.1612 15.5863 16.9782 15.8212 16.8939C15.9187 16.8544 16.0257 16.8466 16.1278 16.8713C16.2298 16.8961 16.3219 16.9524 16.3912 17.0323C16.5557 17.2074 16.6332 17.4604 16.4797 17.6386C16.2198 17.9426 16.2769 18.2807 16.2683 18.6205C16.2694 18.7049 16.2641 18.7892 16.2526 18.8727C16.2449 18.9312 16.2162 18.9847 16.1719 19.0229C16.1277 19.0611 16.0711 19.0813 16.013 19.0796C15.982 19.0836 15.9504 19.0812 15.9203 19.0726C15.8901 19.0641 15.862 19.0495 15.8375 19.0297C15.8129 19.0099 15.7926 18.9853 15.7775 18.9574C15.7625 18.9295 15.7531 18.8988 15.7499 18.8672C15.7376 18.752 15.7324 18.6361 15.7343 18.5202C15.7264 18.2219 15.7891 17.9092 15.5267 17.6649C15.468 17.6116 15.468 17.4906 15.4492 17.4262Z" fill="#6C3A2C"/>
<path d="M28.6829 0.0747218C29.7666 -0.0191688 29.7666 -0.0191682 29.7666 1.06376C29.7666 2.2785 29.7666 3.49377 29.7666 4.70958C29.7666 4.82336 29.7384 4.94271 29.805 5.04933C29.805 5.35488 29.805 5.66121 29.8105 5.96676C29.8152 6.15295 29.7431 6.23649 29.5544 6.23172C29.2647 6.22376 28.9734 6.23172 28.6829 6.23172C28.5748 6.14022 28.4479 6.17045 28.3227 6.17045C20.1052 6.17045 11.8877 6.17045 3.67016 6.17045C3.548 6.17045 3.41802 6.14022 3.30917 6.23172C3.01944 6.23172 2.72892 6.22694 2.43918 6.23172C2.25203 6.23729 2.17764 6.15692 2.18234 5.96914C2.18938 5.67394 2.18234 5.37954 2.18234 5.08434C2.27709 4.9634 2.24185 4.82097 2.24185 4.6865C2.24185 3.30148 2.24185 1.9162 2.24185 0.530649C2.24185 0.0707442 2.24185 0.0699487 2.71169 0.0707443C2.90902 0.0707443 3.10714 0.0707437 3.30447 0.0763135L3.31622 1.72417C3.31622 2.10292 3.31622 2.48193 3.31622 2.8612C3.31152 3.45319 3.3076 4.04518 3.30447 4.63717C3.30447 5.08275 3.30447 5.08355 3.73594 5.08355H28.2459C28.3187 5.08355 28.3916 5.07718 28.4644 5.08355C28.6296 5.09787 28.6813 5.0191 28.6789 4.85917C28.6711 4.19318 28.6696 3.52719 28.6656 2.8612V1.72417L28.6829 0.0747218Z" fill="#ECAC45"/>
<path d="M3.31323 6.22865C3.42208 6.13715 3.54815 6.16738 3.67423 6.16738C11.8917 6.16738 20.1092 6.16738 28.3267 6.16738C28.4489 6.16738 28.5789 6.13715 28.6869 6.22865H3.31323Z" fill="#E1A136"/>
<path d="M28.6783 1.72339V2.86042H3.32495C3.32495 2.48061 3.32495 2.1016 3.32495 1.72339H28.6783Z" fill="#6C392C"/>
<path d="M3.32492 2.8606H28.6759C28.6798 3.52658 28.6814 4.19257 28.6892 4.85856C28.6892 5.01769 28.6399 5.09726 28.4747 5.08294C28.4018 5.07657 28.329 5.08294 28.2562 5.08294H3.74621C3.31396 5.08294 3.3124 5.08294 3.31474 4.63656C3.31631 4.04457 3.3197 3.45258 3.32492 2.8606Z" fill="#AE6F4D"/>
</g>
<defs>
<clipPath id="clip0_299_2612">
<rect width="32" height="32" fill="white"/>
</clipPath>
</defs>
</svg>
