<svg width="13" height="12" viewBox="0 0 13 12" fill="none" xmlns="http://www.w3.org/2000/svg">
<g clip-path="url(#clip0_739_1583)">
<path d="M6.5137 8.15201e-05C7.30177 0.000948041 8.08193 0.157277 8.8095 0.460115C9.53707 0.762954 10.1978 1.20635 10.7537 1.76492C11.3097 2.32349 11.7501 2.98626 12.0495 3.71526C12.349 4.44427 12.5018 5.2252 12.499 6.01333C12.4938 7.60507 11.857 9.12964 10.7285 10.2522C9.60004 11.3747 8.0722 12.0034 6.48058 12.0001C5.69263 11.9976 4.91288 11.8399 4.18587 11.536C3.45886 11.2322 2.79883 10.788 2.24347 10.229C1.6881 9.67 1.24829 9.00706 0.949138 8.27804C0.649987 7.54903 0.49736 6.76822 0.499974 5.98021C0.500337 5.19212 0.656384 4.41186 0.95915 3.68426C1.26192 2.95666 1.70544 2.29605 2.26424 1.74037C2.82304 1.18469 3.48611 0.744895 4.21536 0.446243C4.94461 0.147591 5.72568 -0.00403229 6.5137 8.15201e-05ZM6.49572 0.996611C5.8385 0.995739 5.18758 1.12457 4.58023 1.37572C3.97289 1.62687 3.42107 1.9954 2.9564 2.46021C2.49172 2.92501 2.12332 3.47694 1.8723 4.08438C1.62129 4.69181 1.49259 5.34282 1.49359 6.00008C1.49559 7.3274 2.02358 8.5998 2.96188 9.53854C3.90018 10.4773 5.17229 11.0058 6.4995 11.0083C7.82756 11.0043 9.09994 10.4742 10.0381 9.5342C10.9763 8.59416 11.5039 7.32068 11.5054 5.99251C11.5032 4.66575 10.9742 3.39418 10.0348 2.45735C9.09534 1.52052 7.82237 0.995104 6.49572 0.996611Z" fill="#FFC107"/>
<path d="M6.47491 4.34196C5.97148 4.34196 5.6573 4.50284 5.61188 4.74511C5.56078 5.01577 5.73585 5.18234 6.24022 5.33375C6.63483 5.453 7.04079 5.5429 7.42594 5.6877C8.05901 5.92524 8.33817 6.37192 8.31356 7.02681C8.30864 7.31317 8.20946 7.58992 8.03137 7.81421C7.85329 8.0385 7.60624 8.19782 7.32847 8.26751C7.05877 8.34227 6.9755 8.45678 6.97739 8.72461C6.98148 8.79039 6.97162 8.85629 6.94845 8.918C6.92528 8.9797 6.88933 9.0358 6.84295 9.08263C6.79658 9.12946 6.74082 9.16595 6.67935 9.18971C6.61788 9.21347 6.55207 9.22397 6.48626 9.2205C6.20237 9.19968 5.99986 9.03123 6.01311 8.74732C6.02731 8.42839 5.88536 8.32808 5.6081 8.25426C5.18321 8.14259 4.89837 7.84259 4.72804 7.44133C4.62205 7.19148 4.66842 6.96151 4.92392 6.83943C5.17942 6.71735 5.40937 6.79117 5.51915 7.04763C5.76991 7.63439 6.35473 7.69969 6.83639 7.59748C7.14583 7.53123 7.38146 7.35521 7.40417 7.00694C7.42688 6.65868 7.18558 6.54038 6.9121 6.45899C6.51654 6.33975 6.11247 6.247 5.72355 6.10978C5.05357 5.87319 4.7375 5.45678 4.74507 4.87382C4.75264 4.29085 5.07722 3.89811 5.76991 3.68801C5.9535 3.63312 5.99892 3.54416 6.00554 3.36435C6.01784 2.98581 6.1948 2.78707 6.48437 2.7795C6.78813 2.77193 6.97644 2.98013 6.98401 3.37571C6.98401 3.57066 7.05404 3.64448 7.23573 3.72871C7.49977 3.85231 7.73826 4.02437 7.93883 4.23596C7.98696 4.28088 8.02424 4.33616 8.04782 4.39763C8.0714 4.4591 8.08067 4.52514 8.07492 4.59072C8.06917 4.65631 8.04856 4.71972 8.01465 4.77615C7.98074 4.83258 7.93442 4.88055 7.87921 4.9164C7.66062 5.06782 7.37105 5.01104 7.2168 4.74606C7.14213 4.6171 7.0334 4.51119 6.90255 4.43991C6.77169 4.36863 6.62374 4.33474 6.47491 4.34196Z" fill="#FFC107"/>
</g>
<defs>
<clipPath id="clip0_739_1583">
<rect width="12" height="12" fill="white" transform="translate(0.5)"/>
</clipPath>
</defs>
</svg>
