<svg width="40" height="32" viewBox="0 0 40 32" fill="none" xmlns="http://www.w3.org/2000/svg">
<path d="M30.356 31.9063C30.2313 32.0413 30.0681 31.9913 29.9173 31.9913H10.2495C10.0489 31.9913 9.84324 32.0188 9.66004 31.9051C7.44039 31.4453 5.30923 30.7656 3.48715 29.35C1.66507 27.9343 0.721622 25.9877 0.371413 23.7374C-0.0672818 20.9324 -0.0784991 18.1549 0.973372 15.4535C1.73233 13.5245 2.79755 11.7313 4.12774 10.1434C4.26608 9.97595 4.39819 9.80228 4.53154 9.63235C4.55989 9.63009 4.5879 9.62464 4.61504 9.61611H5.06371C5.15718 9.61611 5.25065 9.6286 5.34288 9.6286H23.1736C23.2982 9.6286 23.4229 9.61611 23.5475 9.60986C23.6173 9.69108 23.6921 9.76979 23.7556 9.85975C25.1053 11.6865 27.5967 11.7002 28.9551 9.87974C29.0087 9.7975 29.083 9.73102 29.1706 9.6871C29.2582 9.64319 29.3559 9.62343 29.4537 9.62985C31.4589 9.6386 33.4642 9.6386 35.4708 9.6411C36.7171 11.1267 37.7988 12.7073 38.6202 14.4727C39.7705 16.9429 40.0808 19.533 39.8266 22.2193C39.7511 23.197 39.5842 24.1654 39.328 25.1118C38.7792 27.1347 37.4735 28.8675 35.6826 29.9497C34.04 30.9568 32.2254 31.5252 30.356 31.9063ZM3.29522 20.9986C3.28344 22.5904 3.51245 24.1748 3.97445 25.6978C4.13771 26.2538 4.55771 26.5075 5.02258 26.36C5.46252 26.2201 5.66816 25.7878 5.50863 25.2505C4.77942 22.837 4.68624 20.2753 5.23819 17.815C5.36282 17.2353 5.13225 16.8229 4.65368 16.7217C4.1751 16.6205 3.80121 16.9004 3.67658 17.4714C3.41193 18.6281 3.28269 19.8119 3.29148 20.9986H3.29522ZM8.0573 12.7672C8.05051 12.6205 8.00368 12.4786 7.92193 12.3567C7.84018 12.2349 7.72664 12.1379 7.59368 12.0763C7.4543 12.0059 7.2967 11.9801 7.14222 12.0024C6.98774 12.0248 6.84384 12.0942 6.73 12.2012C6.14412 12.6853 5.63923 13.2603 5.23445 13.9042C4.96026 14.3403 5.04252 14.7938 5.42638 15.05C5.51376 15.1083 5.61188 15.1486 5.71499 15.1685C5.8181 15.1883 5.92412 15.1873 6.02685 15.1656C6.12957 15.1438 6.22693 15.1017 6.31322 15.0417C6.39951 14.9818 6.47298 14.9051 6.52935 14.8163C6.8918 14.2956 7.31199 13.8177 7.78187 13.392C7.86963 13.3136 7.93963 13.2173 7.98714 13.1095C8.03465 13.0018 8.05857 12.885 8.0573 12.7672Z" fill="#FFB134"/>
<path d="M5.18723 6.36457C4.4353 5.395 3.68545 4.42543 2.93767 3.45585C2.52515 2.91859 2.41423 2.33134 2.7258 1.70662C3.03738 1.08189 3.5521 0.809513 4.23506 0.814511C4.69993 0.814511 5.1648 0.814511 5.62967 0.814511H8.89745L13.6558 0.812012H16.8251L20.0991 0.843248C20.0842 1.03566 19.9296 1.13187 19.8137 1.25182C18.6048 2.50127 18.7544 4.43917 19.8773 5.45123C20.2287 5.76859 20.645 6.01223 20.9466 6.38457C20.7938 6.40765 20.6399 6.42267 20.4855 6.42955C15.5834 6.42955 10.6838 6.42955 5.7867 6.42955C5.58584 6.41896 5.38571 6.39727 5.18723 6.36457Z" fill="#ECAC45"/>
<path d="M5.18706 6.36475C5.38556 6.39703 5.58569 6.4183 5.78653 6.42847C10.6886 6.42847 15.5882 6.42847 20.4853 6.42847C20.6399 6.42847 20.7931 6.39973 20.9464 6.38474C21.7079 6.68835 22.442 7.07693 23.267 7.18439C23.044 8.02527 23.1786 8.82492 23.545 9.59708C23.4203 9.59708 23.2957 9.61582 23.1711 9.61582H5.34285C5.25062 9.61582 5.15715 9.60832 5.06368 9.60458C5.00162 9.55001 4.92189 9.51993 4.83935 9.51993C4.7568 9.51993 4.67707 9.55001 4.61501 9.60458C4.58787 9.61311 4.55986 9.61855 4.53151 9.62082C4.22368 9.59458 3.90837 9.61332 3.60801 9.52086C2.91258 9.3097 2.40907 8.57878 2.48634 7.87783C2.52148 7.50457 2.68531 7.15526 2.94964 6.89003C3.21396 6.62481 3.56225 6.46026 3.93454 6.42472C4.35454 6.39473 4.77579 6.47845 5.18706 6.36475Z" fill="#EFC319"/>
<path d="M23.545 9.59809C23.1786 8.82593 23.0465 8.02628 23.2671 7.1854C23.4501 6.63881 23.7418 6.13513 24.1245 5.7048L24.7701 5.21751C25.2418 4.97158 25.7635 4.83749 26.2951 4.82558C26.8266 4.81366 27.3538 4.92424 27.836 5.14879C28.1526 5.31497 28.408 5.56361 28.6797 5.78976C28.9527 6.13086 29.2244 6.47321 29.3477 6.90177C29.4113 7.12667 29.521 7.16291 29.754 7.12168C30.4694 6.99673 31.0963 6.65188 31.7568 6.387C32.7776 6.46864 33.8036 6.45903 34.8227 6.35826C35.1542 6.48321 35.4982 6.40574 35.8347 6.41449C36.8143 6.44072 37.5122 7.07295 37.5322 7.97255C37.5521 8.87216 36.8367 9.5706 35.8459 9.60933C35.7213 9.60933 35.5967 9.62183 35.472 9.62932C33.4655 9.62932 31.4602 9.62932 29.4549 9.61808C29.3572 9.61166 29.2595 9.63142 29.1719 9.67533C29.0843 9.71924 29.0099 9.78573 28.9564 9.86797C27.598 11.6884 25.1066 11.6747 23.7569 9.84798C23.6896 9.75802 23.6148 9.6793 23.545 9.59809Z" fill="#EFC319"/>
<path d="M34.8203 6.35848C33.8012 6.45925 32.7752 6.46887 31.7544 6.38722C32.0535 6.14733 32.3489 5.90243 32.653 5.66879C33.7746 4.80542 34.1859 3.04494 33.3322 1.79549C33.1066 1.46313 32.8486 1.15702 32.5994 0.840907L34.2819 0.815918H34.3878C34.8676 0.815918 35.3475 0.823415 35.8273 0.824664C36.1236 0.810605 36.4177 0.883491 36.6733 1.0344C36.929 1.1853 37.1352 1.40768 37.2667 1.67429C37.4199 1.93917 37.4885 2.24469 37.4633 2.54981C37.4381 2.85492 37.3204 3.145 37.1259 3.38104C36.3657 4.3781 35.5905 5.36517 34.8203 6.35848Z" fill="#ECAC45"/>
<path d="M3.29153 20.9983C3.2818 19.813 3.40979 18.6305 3.6729 17.4749C3.79753 16.9001 4.16394 16.619 4.64999 16.7252C5.13605 16.8314 5.36287 17.2387 5.2345 17.8185C4.68256 20.2788 4.77573 22.8405 5.50495 25.254C5.66447 25.7912 5.45884 26.2235 5.01889 26.3635C4.55403 26.5109 4.13403 26.2573 3.97076 25.7013C3.50839 24.1771 3.27938 22.5914 3.29153 20.9983Z" fill="#D0946C"/>
<path d="M8.05716 12.767C8.05843 12.8848 8.03451 13.0015 7.98699 13.1093C7.93948 13.217 7.86949 13.3133 7.78173 13.3917C7.31003 13.8176 6.88815 14.2959 6.52422 14.8173C6.46786 14.9061 6.39438 14.9828 6.30809 15.0427C6.22181 15.1027 6.12445 15.1448 6.02172 15.1666C5.919 15.1883 5.81297 15.1893 5.70986 15.1695C5.60675 15.1496 5.50863 15.1093 5.42125 15.051C5.03739 14.8011 4.95514 14.3413 5.22932 13.9052C5.6341 13.2613 6.13899 12.6863 6.72487 12.2022C6.83871 12.0952 6.98261 12.0258 7.13709 12.0034C7.29157 11.9811 7.44917 12.0069 7.58855 12.0773C7.72226 12.1381 7.83671 12.2346 7.91936 12.3562C8.00201 12.4779 8.04969 12.62 8.05716 12.767Z" fill="#D0946C"/>
<path d="M31.1164 0.0562718C31.1431 0.065792 31.1717 0.0692069 31.1999 0.0662673C31.7056 0.245814 32.1785 0.507527 32.5995 0.840927C32.8487 1.15704 33.1105 1.46565 33.336 1.79426C34.1897 3.04371 33.7772 4.80544 32.6568 5.66756C32.3527 5.90121 32.0573 6.1461 31.7582 6.38599C31.0977 6.65088 30.4708 6.99822 29.7554 7.12067C29.5224 7.1619 29.4127 7.12067 29.3491 6.90077C29.2245 6.4722 28.9541 6.12986 28.6811 5.78876C28.7125 5.72626 28.7621 5.67477 28.8233 5.64109C28.8845 5.60741 28.9544 5.59311 29.0239 5.60009C29.7853 5.55485 30.5174 5.28924 31.1313 4.83542C31.7084 4.4331 32.2405 4.00829 32.1583 3.15741C32.1159 2.7301 31.8604 2.5002 31.6299 2.21407C30.9307 1.33946 30.1468 1.47315 29.5747 1.96418C28.7372 2.69137 28.149 3.58847 28.0318 4.73547C28.0291 4.81386 28.0101 4.89081 27.976 4.96139C27.9418 5.03197 27.8934 5.09461 27.8336 5.14529C27.3515 4.92074 26.8243 4.81016 26.2927 4.82207C25.7612 4.83399 25.2395 4.96807 24.7678 5.21401C24.7741 4.27211 24.4352 3.36066 23.8156 2.65263C23.5015 2.29654 23.2136 1.88172 22.7538 1.70305C22.0297 1.42692 21.3828 1.72054 20.8357 2.52144C20.4132 3.14617 20.4693 3.7509 20.9853 4.29316C21.6396 4.98161 22.4646 5.34895 23.3632 5.5826C23.6125 5.64757 23.8941 5.49888 24.1222 5.70129C23.7403 6.13184 23.4495 6.63551 23.2672 7.18189C22.4397 7.07444 21.7081 6.68211 20.9466 6.38224C20.645 6.00741 20.2288 5.76502 19.8773 5.44765C18.7556 4.4356 18.6048 2.5002 19.8138 1.24825C19.9297 1.1233 20.0842 1.03209 20.1029 0.842177C20.6538 0.509823 21.1647 0.116245 21.8477 0.0362805C22.2924 -0.00179751 22.7403 0.0357997 23.1725 0.147482C23.6324 0.279924 23.9764 0.617275 24.3827 0.843426C24.4014 1.01585 24.5322 1.11331 24.6456 1.21826C25.4121 1.90296 25.8508 2.78008 26.1636 3.74215C26.2633 4.04952 26.1935 4.39687 26.4129 4.69798C26.451 4.28919 26.5316 3.88551 26.6534 3.49351C26.9924 2.44647 27.6392 1.60184 28.3982 0.83468C29.2046 0.206206 30.082 -0.14364 31.1164 0.0562718Z" fill="#EFC319"/>
<path d="M27.8335 5.14532C27.8922 5.09459 27.9398 5.0322 27.9733 4.96209C28.0068 4.89198 28.0254 4.81568 28.0279 4.738C28.1451 3.59226 28.7333 2.6939 29.5708 1.96672C30.1429 1.46694 30.9268 1.342 31.626 2.21661C31.8565 2.50273 32.112 2.73263 32.1544 3.15995C32.2366 4.01082 31.7045 4.43563 31.1274 4.83796C30.5135 5.29177 29.7814 5.55739 29.02 5.60262C28.9505 5.59564 28.8806 5.60994 28.8194 5.64362C28.7582 5.6773 28.7086 5.72879 28.6772 5.79129C28.4055 5.56389 28.1501 5.31525 27.8335 5.14532Z" fill="#A46942"/>
<path d="M24.1245 5.70527C23.8964 5.50285 23.6147 5.65154 23.3655 5.58657C22.4669 5.35292 21.6419 4.98558 20.9876 4.29713C20.4716 3.75487 20.4155 3.15264 20.838 2.52541C21.3826 1.72076 22.0295 1.42714 22.7536 1.70327C23.2197 1.88194 23.5113 2.29676 23.8216 2.6566C24.4413 3.36463 24.7801 4.27608 24.7738 5.21798L24.1245 5.70527Z" fill="#A46942"/>
<path d="M24.3823 0.846178L26.3527 0.814941L28.4066 0.834933C27.6439 1.6021 26.997 2.44673 26.6618 3.49377C26.54 3.88576 26.4594 4.28945 26.4213 4.69824C26.1969 4.39712 26.2667 4.04977 26.172 3.74241C25.8592 2.78033 25.4242 1.90321 24.654 1.21851C24.5319 1.11606 24.401 1.02235 24.3823 0.846178Z" fill="#ECAC45"/>
</svg>
