<svg width="25" height="24" viewBox="0 0 25 24" fill="none" xmlns="http://www.w3.org/2000/svg">
<g clip-path="url(#clip0_776_2492)">
<path opacity="0.15" d="M12.2646 24.0001C18.7621 24.0001 24.0294 18.7329 24.0294 12.2354C24.0294 5.73794 18.7621 0.470703 12.2646 0.470703C5.76718 0.470703 0.499939 5.73794 0.499939 12.2354C0.499939 18.7329 5.76718 24.0001 12.2646 24.0001Z" fill="#E33939"/>
<path d="M12.7353 23.5294C19.2328 23.5294 24.5001 18.2622 24.5001 11.7647C24.5001 5.26724 19.2328 0 12.7353 0C6.23788 0 0.970642 5.26724 0.970642 11.7647C0.970642 18.2622 6.23788 23.5294 12.7353 23.5294Z" fill="#FF441B"/>
<path d="M12.7352 2.35303C17.9331 2.35303 22.147 6.56691 22.147 11.7648C22.147 16.9627 17.9331 21.1766 12.7352 21.1766C7.53731 21.1766 3.32343 16.9627 3.32343 11.7648C3.32343 6.56691 7.53731 2.35303 12.7352 2.35303Z" fill="white"/>
<path fill-rule="evenodd" clip-rule="evenodd" d="M12.7353 4.70605C16.6339 4.70605 19.7941 7.86629 19.7941 11.7649C19.7941 15.6632 16.6339 18.8237 12.7353 18.8237C8.83669 18.8237 5.67645 15.6632 5.67645 11.7649C5.67645 7.86629 8.83669 4.70605 12.7353 4.70605Z" fill="#FF441B"/>
<path d="M12.7351 7.05859C15.3342 7.05859 17.441 9.16565 17.441 11.7645C17.441 14.3633 15.3342 16.4704 12.7351 16.4704C10.1361 16.4704 8.02924 14.3633 8.02924 11.7645C8.02924 9.16565 10.1361 7.05859 12.7351 7.05859Z" fill="white"/>
<path fill-rule="evenodd" clip-rule="evenodd" d="M12.7352 9.41162C14.0347 9.41162 15.0881 10.465 15.0881 11.7646C15.0881 13.0639 14.0347 14.1175 12.7352 14.1175C11.4357 14.1175 10.3823 13.0639 10.3823 11.7646C10.3823 10.465 11.4357 9.41162 12.7352 9.41162Z" fill="#FF441B"/>
<path fill-rule="evenodd" clip-rule="evenodd" d="M21.4411 17.4116H18.3823L21.4411 20.4704H24.4999L21.4411 17.4116Z" fill="#F0C419"/>
<path fill-rule="evenodd" clip-rule="evenodd" d="M21.4411 23.5293V20.4704L18.3823 17.4116V20.4704L21.4411 23.5293Z" fill="#FF2515"/>
<path fill-rule="evenodd" clip-rule="evenodd" d="M21.4411 17.4116H18.3823L21.4411 20.4704H24.4999L21.4411 17.4116Z" fill="#F0C419"/>
<path opacity="0.15" d="M12.3679 11.3973L4.0578 19.7074C4.21724 19.8805 4.38178 20.0488 4.55121 20.2121L12.867 11.8964C12.9007 11.8638 12.9276 11.8249 12.9461 11.7818C12.9646 11.7387 12.9743 11.6924 12.9747 11.6456C12.9751 11.5987 12.9662 11.5522 12.9484 11.5088C12.9307 11.4655 12.9045 11.4261 12.8714 11.3929C12.8382 11.3598 12.7988 11.3336 12.7554 11.3158C12.7121 11.2981 12.6656 11.2892 12.6187 11.2896C12.5719 11.29 12.5255 11.2997 12.4825 11.3182C12.4394 11.3367 12.4005 11.3636 12.3679 11.3973Z" fill="black"/>
<path d="M21.7619 21.1517C21.6716 21.1517 21.581 21.1174 21.5121 21.0485L12.4857 12.0141C12.4224 11.9473 12.3876 11.8584 12.3889 11.7663C12.3901 11.6743 12.4273 11.5864 12.4924 11.5213C12.5575 11.4562 12.6455 11.4192 12.7376 11.418C12.8296 11.4168 12.9185 11.4517 12.9852 11.515L22.0118 20.5492C22.0611 20.5986 22.0947 20.6615 22.1082 20.73C22.1218 20.7984 22.1147 20.8694 22.088 20.9339C22.0613 20.9983 22.016 21.0534 21.958 21.0922C21.9 21.131 21.8317 21.1517 21.7619 21.1517Z" fill="#E57E25"/>
</g>
<defs>
<clipPath id="clip0_776_2492">
<rect width="24.0001" height="24" fill="white" transform="translate(0.499939)"/>
</clipPath>
</defs>
</svg>
