<svg width="28" height="28" viewBox="0 0 28 28" fill="none" xmlns="http://www.w3.org/2000/svg">
<rect width="28" height="28" rx="14" fill="#A33596"/>
<path d="M10.112 9.01599L14 12.904L17.872 9.03199C17.9399 8.95976 18.0216 8.90198 18.1123 8.86212C18.2031 8.82225 18.3009 8.80112 18.4 8.79999C18.6122 8.79999 18.8157 8.88427 18.9657 9.0343C19.1157 9.18433 19.2 9.38781 19.2 9.59999C19.2019 9.69807 19.1837 9.7955 19.1465 9.88629C19.1094 9.97709 19.0541 10.0593 18.984 10.128L15.072 14L18.984 17.912C19.1158 18.041 19.1932 18.2157 19.2 18.4C19.2 18.6122 19.1157 18.8156 18.9657 18.9657C18.8157 19.1157 18.6122 19.2 18.4 19.2C18.298 19.2042 18.1963 19.1872 18.1013 19.15C18.0063 19.1128 17.92 19.0563 17.848 18.984L14 15.096L10.12 18.976C10.0524 19.0458 9.97165 19.1015 9.8824 19.14C9.79315 19.1784 9.69717 19.1988 9.6 19.2C9.38782 19.2 9.18434 19.1157 9.03431 18.9657C8.88428 18.8156 8.8 18.6122 8.8 18.4C8.79813 18.3019 8.81633 18.2045 8.85347 18.1137C8.89062 18.0229 8.94592 17.9406 9.016 17.872L12.928 14L9.016 10.088C8.88414 9.95899 8.80683 9.78432 8.8 9.59999C8.8 9.38781 8.88428 9.18433 9.03431 9.0343C9.18434 8.88427 9.38782 8.79999 9.6 8.79999C9.792 8.80239 9.976 8.87999 10.112 9.01599Z" fill="#F8F8F8"/>
</svg>
