<svg width="18" height="21" viewBox="0 0 18 21" fill="none" xmlns="http://www.w3.org/2000/svg">
<path d="M9.60422 20.5C3.08022 20.5 1.33711 13.2961 2.12504 8.576C2.15933 8.37057 2.41355 8.31139 2.52432 8.48389C2.86734 9.01795 3.17259 9.78934 3.67834 9.72238C4.43851 9.62171 4.96514 2.51646 9.47041 0.517229C9.61339 0.453789 9.76297 0.574157 9.74728 0.737486C9.5245 3.05281 10.8369 6.36753 13.1619 6.36753C14.4947 6.36753 15.4066 5.24076 15.8623 4.10917C16.0007 3.76543 16.4748 3.80876 16.5542 4.1729C17.3674 7.90318 19.541 20.5 9.60422 20.5Z" fill="#FF8F1F"/>
<path d="M7.31712 13.5533C7.47054 13.4167 7.70345 13.5104 7.73829 13.7195C7.81979 14.2086 8.0878 15.0492 8.96693 15.0492C10.0245 15.0492 10.7421 11.9668 10.9303 11.0602C10.9613 10.9111 11.0985 10.8098 11.2398 10.8402C13.8827 11.4094 15.1676 20.4998 9.35678 20.4998C5.12653 20.4998 6.08488 14.6498 7.31712 13.5533ZM14.5387 3.70875C14.6319 2.93707 13.302 5.0477 13.302 5.0477C13.302 5.0477 14.3159 5.55497 14.5387 3.70875ZM1.13897 15.2173C1.167 14.8888 0.768028 14.0092 0.69739 14.3574C0.528314 15.1906 1.11093 15.5458 1.13897 15.2173Z" fill="#FFB636"/>
</svg>
