<svg width="25" height="24" viewBox="0 0 25 24" fill="none" xmlns="http://www.w3.org/2000/svg">
<g clip-path="url(#clip0_739_1116)">
<path d="M5.00122 3.75C5.00122 2.75544 5.39624 1.80161 6.09939 1.09835C6.80254 0.395088 7.75621 0 8.75061 0C9.74501 0 10.6987 0.395088 11.4018 1.09835C12.105 1.80161 12.5 2.75544 12.5 3.75C12.5 2.75544 12.895 1.80161 13.5982 1.09835C14.3013 0.395088 15.255 0 16.2494 0C17.2438 0 18.1975 0.395088 18.9006 1.09835C19.6038 1.80161 19.9988 2.75544 19.9988 3.75V3.759C19.9988 3.864 19.9988 4.164 19.9418 4.5H22.9983C23.3961 4.5 23.7775 4.65804 24.0588 4.93934C24.34 5.22064 24.4981 5.60218 24.4981 6V7.5C24.4981 7.89782 24.34 8.27936 24.0588 8.56066C23.7775 8.84196 23.3961 9 22.9983 9H2.0017C1.60394 9 1.22247 8.84196 0.941214 8.56066C0.659955 8.27936 0.501945 7.89782 0.501945 7.5V6C0.501945 5.60218 0.659955 5.22064 0.941214 4.93934C1.22247 4.65804 1.60394 4.5 2.0017 4.5H5.05821C5.01859 4.25502 4.99953 4.00716 5.00122 3.759V3.75ZM6.60296 4.5H11.0002V3.75C11.0002 3.45453 10.9421 3.16194 10.829 2.88896C10.7159 2.61598 10.5502 2.36794 10.3413 2.15901C10.1324 1.95008 9.88445 1.78434 9.61151 1.67127C9.33857 1.5582 9.04604 1.5 8.75061 1.5C8.45518 1.5 8.16265 1.5582 7.88971 1.67127C7.61677 1.78434 7.36877 1.95008 7.15988 2.15901C6.95098 2.36794 6.78527 2.61598 6.67222 2.88896C6.55916 3.16194 6.50097 3.45453 6.50097 3.75C6.50097 3.8775 6.50397 4.161 6.56846 4.395C6.57747 4.43077 6.589 4.46586 6.60296 4.5ZM13.9998 4.5H18.397C18.4108 4.4658 18.4224 4.43072 18.4315 4.395C18.496 4.161 18.499 3.8775 18.499 3.75C18.499 3.15326 18.262 2.58097 17.8401 2.15901C17.4182 1.73705 16.846 1.5 16.2494 1.5C15.6528 1.5 15.0806 1.73705 14.6587 2.15901C14.2368 2.58097 13.9998 3.15326 13.9998 3.75V4.5ZM22.9983 10.5V21.75C22.9983 22.3467 22.7613 22.919 22.3394 23.341C21.9175 23.7629 21.3453 24 20.7487 24H13.9998V10.5H22.9983ZM4.25134 24C3.6547 24 3.08249 23.7629 2.66061 23.341C2.23872 22.919 2.0017 22.3467 2.0017 21.75V10.5H11.0002V24H4.25134Z" fill="#F0CC10"/>
</g>
<defs>
<clipPath id="clip0_739_1116">
<rect width="23.9961" height="24" fill="white" transform="translate(0.501945)"/>
</clipPath>
</defs>
</svg>
