<svg width="25" height="24" viewBox="0 0 25 24" fill="none" xmlns="http://www.w3.org/2000/svg">
<g clip-path="url(#clip0_776_2484)">
<path d="M24.0308 5.00685C25.1206 8.37487 24.2085 11.8021 22.2864 14.3843C21.0177 16.1354 19.5014 17.6445 17.9512 18.964C16.525 20.2918 13.3333 22.919 12.4872 22.992C11.7395 22.849 10.9004 22.0033 10.3068 21.5681C6.97097 19.0319 3.38009 15.9477 1.55934 12.5755C0.0327879 9.33807 0.0299882 5.33377 2.40587 2.85171C5.48657 0.0739465 10.1311 0.616727 12.4872 3.51879C13.12 2.69779 13.8981 2.05209 14.8216 1.58173C18.5652 0.0871666 22.4598 1.61009 24.0308 5.00685V5.00685Z" fill="#E33939"/>
</g>
<defs>
<clipPath id="clip0_776_2484">
<rect width="23.9961" height="24" fill="white" transform="translate(0.501953)"/>
</clipPath>
</defs>
</svg>
