<svg width="24" height="24" viewBox="0 0 24 24" fill="none" xmlns="http://www.w3.org/2000/svg">
<path d="M24 22.7448L17.296 16.0408C18.907 14.1067 19.7104 11.626 19.5389 9.11474C19.3675 6.60346 18.2345 4.25494 16.3756 2.55775C14.5168 0.86055 12.0751 -0.0546525 9.55864 0.00252659C7.04217 0.0597056 4.64462 1.08486 2.86474 2.86474C1.08486 4.64462 0.0597056 7.04217 0.00252659 9.55864C-0.0546525 12.0751 0.86055 14.5168 2.55775 16.3756C4.25494 18.2345 6.60346 19.3675 9.11474 19.5389C11.626 19.7104 14.1067 18.907 16.0408 17.296L22.7448 24L24 22.7448ZM1.80717 9.79659C1.80717 8.21643 2.27574 6.67176 3.15363 5.35791C4.03152 4.04405 5.2793 3.02003 6.73917 2.41533C8.19905 1.81063 9.80545 1.65241 11.3552 1.96069C12.905 2.26896 14.3286 3.02988 15.446 4.14722C16.5633 5.26456 17.3242 6.68814 17.6325 8.23793C17.9408 9.78773 17.7826 11.3941 17.1779 12.854C16.5732 14.3139 15.5491 15.5617 14.2353 16.4395C12.9214 17.3174 11.3767 17.786 9.79659 17.786C7.67838 17.7837 5.64761 16.9412 4.14981 15.4434C2.65202 13.9456 1.80952 11.9148 1.80717 9.79659Z" fill="#0F1728"/>
</svg>
