<svg width="22" height="24" viewBox="0 0 22 24" fill="none" xmlns="http://www.w3.org/2000/svg">
<g clip-path="url(#clip0_68_548)">
<path d="M14.9957 20.5699C14.3964 23.0029 12.3373 24.0923 10.5629 23.9946C8.80559 23.8976 7.06684 22.6961 6.5774 20.5699H6.30057C4.81082 20.5699 3.32108 20.5699 1.83133 20.5699C1.08503 20.5699 0.507115 20.2781 0.181055 19.5996C-0.139297 18.936 -0.0194332 18.3153 0.421497 17.7231C0.948045 17.0146 1.43892 16.2812 1.93693 15.552C2.14384 15.2495 2.21804 14.9049 2.21733 14.5374C2.21733 12.5575 2.17452 10.5762 2.22446 8.59773C2.31721 4.94971 4.02172 2.2813 7.33583 0.755886C12.1818 -1.47587 17.9709 1.45295 19.1189 6.67062C19.2573 7.33319 19.329 8.00793 19.333 8.68477C19.3608 10.6112 19.348 12.5375 19.3394 14.4639C19.3286 14.9122 19.4647 15.3516 19.7268 15.7154C20.2339 16.426 20.7359 17.1395 21.233 17.8558C21.6218 18.418 21.6703 19.0216 21.3643 19.6274C21.0582 20.2331 20.5352 20.5549 19.8538 20.5606C18.3284 20.572 16.803 20.5649 15.2776 20.5649L14.9957 20.5699ZM19.8203 18.844C19.303 18.0977 18.8114 17.3785 18.3091 16.6672C17.8543 16.0322 17.616 15.2677 17.6292 14.4868C17.6378 12.5697 17.6342 10.6525 17.6292 8.73471C17.6292 8.44147 17.6156 8.14609 17.5857 7.85428C17.1576 3.66973 13.0194 0.849352 8.96613 1.97593C7.52205 2.36981 6.24711 3.22664 5.33693 4.41495C4.42675 5.60325 3.93163 7.05738 3.92753 8.5542C3.91683 10.5341 3.92111 12.514 3.92753 14.4939C3.93907 15.2749 3.69947 16.039 3.24402 16.6736C2.79096 17.3157 2.34789 17.9578 1.90054 18.605L1.73787 18.8433L19.8203 18.844ZM13.1664 20.5813H8.39819C8.63436 21.5088 9.67247 22.2623 10.7241 22.2808C11.8265 22.3001 12.8817 21.5688 13.1664 20.5806V20.5813Z" fill="black"/>
</g>
<defs>
<clipPath id="clip0_68_548">
<rect width="21.5636" height="24.0006" fill="white"/>
</clipPath>
</defs>
</svg>
