<svg width="19" height="16" viewBox="0 0 19 16" fill="none" xmlns="http://www.w3.org/2000/svg">
<path fill-rule="evenodd" clip-rule="evenodd" d="M6 2C6 1.73478 6.09783 1.48043 6.27197 1.29289C6.44611 1.10536 6.6823 1 6.92857 1H18.0714C18.3177 1 18.5539 1.10536 18.728 1.29289C18.9022 1.48043 19 1.73478 19 2C19 2.26522 18.9022 2.51957 18.728 2.70711C18.5539 2.89464 18.3177 3 18.0714 3H6.92857C6.6823 3 6.44611 2.89464 6.27197 2.70711C6.09783 2.51957 6 2.26522 6 2Z" fill="#A33596"/>
<path fill-rule="evenodd" clip-rule="evenodd" d="M6 8C6 7.73478 6.09783 7.48043 6.27197 7.29289C6.44611 7.10536 6.6823 7 6.92857 7H18.0714C18.3177 7 18.5539 7.10536 18.728 7.29289C18.9022 7.48043 19 7.73478 19 8C19 8.26522 18.9022 8.51957 18.728 8.70711C18.5539 8.89464 18.3177 9 18.0714 9H6.92857C6.6823 9 6.44611 8.89464 6.27197 8.70711C6.09783 8.51957 6 8.26522 6 8Z" fill="#A33596"/>
<path fill-rule="evenodd" clip-rule="evenodd" d="M6 14C6 13.7348 6.09783 13.4804 6.27197 13.2929C6.44611 13.1054 6.6823 13 6.92857 13H18.0714C18.3177 13 18.5539 13.1054 18.728 13.2929C18.9022 13.4804 19 13.7348 19 14C19 14.2652 18.9022 14.5196 18.728 14.7071C18.5539 14.8946 18.3177 15 18.0714 15H6.92857C6.6823 15 6.44611 14.8946 6.27197 14.7071C6.09783 14.5196 6 14.2652 6 14Z" fill="#A33596"/>
<circle cx="2" cy="14" r="2" fill="#A33596"/>
<rect width="4" height="4" fill="#A33596"/>
<path d="M2 6L4 10H0L2 6Z" fill="#A33596"/>
</svg>
