<svg width="18" height="16" viewBox="0 0 18 16" fill="none" xmlns="http://www.w3.org/2000/svg">
<g clip-path="url(#clip0_881_2663)">
<path d="M18 9.00881V9.47542C17.9888 9.4948 17.9797 9.5152 17.9728 9.5363C17.782 10.4446 17.1586 11.0188 16.2056 11.1766C16.1456 11.1863 16.0776 11.2566 16.0481 11.3143C15.87 11.6632 15.7256 12.0294 15.5278 12.3671C13.6251 15.6139 9.33419 16.9182 5.80919 15.3152C3.96841 14.4775 2.68966 13.1377 1.96545 11.3281C1.92701 11.2326 1.88435 11.1832 1.76341 11.1632C0.932321 11.0224 0.369353 10.5735 0.0946655 9.81138C0.0552905 9.70206 0.0323218 9.58919 0.000915527 9.47542V9.00881C0.0126343 8.96703 0.0271655 8.92571 0.0360718 8.88304C0.159353 8.31377 0.470603 7.85294 1.01154 7.58541C1.27967 7.45209 1.27591 7.305 1.25107 7.07747C1.17232 6.35488 1.08373 5.63229 1.1517 4.90215C1.3631 2.61974 3.16732 1.60163 4.88998 1.41543C5.03951 1.40272 5.18182 1.34864 5.29919 1.25989C6.33466 0.496416 7.4981 0.0480212 8.81857 0.00447043C9.59772 -0.0151065 10.3765 0.053822 11.1384 0.209782C12.4879 0.474197 13.7601 0.917703 14.8678 1.71584C16.2033 2.67751 16.9251 3.93781 16.8698 5.55097C16.8501 6.13268 16.7836 6.71351 16.7264 7.29344C16.7147 7.41121 16.7522 7.45565 16.8558 7.50453C17.1097 7.6207 17.3351 7.78609 17.5175 7.99001C17.6998 8.19394 17.8349 8.43186 17.9142 8.6884C17.9479 8.79372 17.9714 8.90171 18 9.00881ZM6.29998 5.41232C6.1092 5.64429 5.94888 5.87182 5.75482 6.06958C5.16654 6.66862 4.42544 7.04014 3.6206 7.30811C3.52685 7.3401 3.44763 7.37077 3.41482 7.48142C3.1931 8.24 2.96294 8.99636 2.73794 9.75406C2.72014 9.81173 2.72848 9.94062 2.73794 10C3.33326 13.1659 6.44529 15.3528 9.78325 14.9524C11.1091 14.797 12.3503 14.2518 13.3325 13.3932C14.3146 12.5347 14.9884 11.406 15.2592 10.1658C15.2978 10.0099 15.28 9.77899 15.2315 9.62563C15.0258 8.97814 14.827 8.32844 14.6447 7.67473C14.5978 7.50098 14.5162 7.4552 14.3358 7.45254C13.2465 7.44506 12.1591 7.36353 11.0822 7.20856C9.98622 7.0468 8.91326 6.80505 7.89466 6.37443C7.3124 6.13636 6.77405 5.81156 6.29998 5.41232Z" fill="#A33596"/>
<path d="M8.88416 13.5066C8.10243 13.4872 7.35523 13.1971 6.78369 12.6911C6.52072 12.4623 6.49213 12.1343 6.70869 11.9068C6.92525 11.6793 7.27119 11.6788 7.53932 11.9019C8.40322 12.6258 9.59479 12.6249 10.4629 11.8997C10.7287 11.6775 11.0793 11.6819 11.2931 11.909C11.5068 12.1361 11.4759 12.4578 11.227 12.6827C10.6481 13.2053 9.824 13.5093 8.88416 13.5066Z" fill="#A33596"/>
<path d="M12.7693 8.89999C12.7698 9.01849 12.7456 9.13592 12.698 9.24548C12.6504 9.35505 12.5803 9.45456 12.4918 9.53827C12.4033 9.62197 12.2982 9.6882 12.1825 9.73313C12.0669 9.77805 11.943 9.80077 11.818 9.79998C11.5662 9.79953 11.3249 9.70428 11.1472 9.53519C10.9695 9.36609 10.87 9.137 10.8704 8.89831C10.8709 8.65961 10.9714 8.43088 11.1497 8.26241C11.3281 8.09395 11.5697 7.99956 11.8215 8.00001C11.9462 7.99956 12.0698 8.02254 12.1851 8.06763C12.3004 8.11272 12.4052 8.17902 12.4933 8.2627C12.5814 8.34638 12.6512 8.44578 12.6985 8.55517C12.7459 8.66455 12.7699 8.78175 12.7693 8.89999Z" fill="#A33596"/>
<path d="M5.62566 8.90488C5.6244 8.7866 5.64787 8.66926 5.6947 8.55963C5.74152 8.45 5.81079 8.35024 5.89849 8.26612C5.9862 8.18199 6.09061 8.11517 6.20569 8.06949C6.32078 8.02382 6.44427 8.00021 6.56903 8.00002C6.75678 7.99891 6.94066 8.0506 7.09742 8.14857C7.25418 8.24654 7.37678 8.38637 7.44971 8.55039C7.52264 8.71442 7.54263 8.89526 7.50716 9.07005C7.47168 9.24484 7.38232 9.40574 7.25039 9.53238C7.11846 9.65903 6.94988 9.74575 6.76597 9.78156C6.58205 9.81738 6.39107 9.80069 6.21716 9.7336C6.04325 9.66652 5.89423 9.55205 5.78895 9.40467C5.68366 9.25729 5.62684 9.08363 5.62566 8.90563V8.90488Z" fill="#141E41"/>
</g>
<defs>
<clipPath id="clip0_881_2663">
<rect width="18" height="16" fill="white"/>
</clipPath>
</defs>
</svg>
