<svg width="15" height="19" viewBox="0 0 15 19" fill="none" xmlns="http://www.w3.org/2000/svg">
<path d="M10.0441 17.675C9.24506 18.512 7.95206 18.062 7.61306 17.085C7.33306 16.278 6.96906 15.313 6.61506 14.602C5.55506 12.476 4.93706 11.266 3.23106 9.75195C2.98101 9.54144 2.6965 9.37567 2.39006 9.26195C1.26006 8.81595 0.20006 7.64695 0.47706 6.25795L0.830061 4.49295C0.921077 4.03758 1.13713 3.61655 1.454 3.27707C1.77087 2.9376 2.17603 2.69309 2.62406 2.57095L8.22406 1.04395C8.82564 0.880078 9.45471 0.843006 10.0714 0.935086C10.688 1.02717 11.2788 1.24639 11.8063 1.57885C12.3338 1.91131 12.7864 2.34976 13.1354 2.86638C13.4845 3.38301 13.7224 3.96653 13.8341 4.57995L14.5191 8.34195C14.5977 8.77434 14.5804 9.21873 14.4684 9.6437C14.3564 10.0687 14.1523 10.4638 13.8707 10.8012C13.5891 11.1386 13.2368 11.4101 12.8388 11.5963C12.4407 11.7825 12.0065 11.879 11.5671 11.879H10.6841L10.6941 11.931C10.7741 12.339 10.8701 12.901 10.9341 13.514C10.9991 14.124 11.0341 14.798 10.9831 15.426C10.9331 16.043 10.7991 16.676 10.4791 17.156C10.3691 17.32 10.2071 17.504 10.0441 17.675Z" fill="#1F45CC"/>
</svg>
