<svg width="40" height="40" viewBox="0 0 40 40" fill="none" xmlns="http://www.w3.org/2000/svg">
<path d="M20.7187 28H19.2812C19.2333 27.9842 19.1858 27.9654 19.1371 27.9525C18.9472 27.905 18.7688 27.8199 18.6124 27.7023C18.4561 27.5846 18.3249 27.4368 18.2267 27.2675C18.0496 26.9758 18.01 26.6533 18.0287 26.3204C18.0342 26.2225 18.005 26.1754 17.9037 26.1433C17.7133 26.0833 17.5271 26 17.3396 25.9229C17.2346 25.8813 17.1212 25.7792 17.0308 25.7979C16.9312 25.8183 16.8533 25.9454 16.7662 26.0267C16.1783 26.5771 15.3225 26.5879 14.7333 26.04C14.4554 25.7817 14.185 25.5129 13.93 25.2321C13.605 24.8746 13.5 24.4454 13.5879 23.9704C13.6479 23.6458 13.8167 23.3838 14.0496 23.1567C14.2287 22.9817 14.2242 22.9808 14.1233 22.7604C14.0521 22.6046 13.9854 22.4462 13.9225 22.2871C13.8008 21.9788 13.8025 21.9783 13.4767 21.9725C12.7525 21.9604 12.1879 21.4979 12.0292 20.7879C12.0216 20.7642 12.0118 20.7411 12 20.7192V19.2812C12.0112 19.2479 12.025 19.2154 12.0337 19.1817C12.18 18.6163 12.5279 18.2367 13.0921 18.0821C13.2787 18.0308 13.4829 18.0363 13.6796 18.0304C13.7775 18.0279 13.8246 18.0033 13.8563 17.9054C13.9146 17.7225 13.9687 17.5304 14.0696 17.3713C14.2287 17.1179 14.1842 16.96 13.9704 16.7463C13.4075 16.1838 13.4162 15.3154 13.9608 14.7325C14.2233 14.4517 14.495 14.1767 14.7808 13.9196C15.1308 13.605 15.5517 13.5029 16.0154 13.5863C16.3415 13.6431 16.6376 13.812 16.8525 14.0638C16.9692 14.1962 17.0675 14.2337 17.2275 14.1333C17.3671 14.0467 17.53 13.9963 17.6858 13.935C18.0192 13.8021 18.0192 13.8033 18.0287 13.445C18.034 13.1411 18.1333 12.8464 18.313 12.6013C18.4927 12.3562 18.7439 12.1727 19.0321 12.0763C19.1154 12.0488 19.1987 12.0254 19.2821 12H20.7196C20.7362 12.0111 20.7541 12.0201 20.7729 12.0267C21.4075 12.1621 21.8479 12.61 21.9537 13.2433C21.9734 13.3929 21.9792 13.5439 21.9712 13.6946C21.9692 13.7825 21.9979 13.8196 22.0812 13.85C22.2729 13.9158 22.4604 13.9929 22.6479 14.0696C22.7579 14.1146 22.8733 14.2175 22.9712 14.2017C23.0692 14.1858 23.1483 14.0546 23.235 13.9733C23.8225 13.4229 24.6792 13.4125 25.2671 13.9583C25.5412 14.2133 25.8087 14.4787 26.0587 14.7546C26.3896 15.1154 26.4996 15.5463 26.4104 16.0283C26.35 16.3525 26.1821 16.6154 25.9492 16.8429C25.77 17.0175 25.7754 17.0179 25.8754 17.2388C25.9546 17.4138 26.0285 17.5912 26.0971 17.7712C26.1937 18.0233 26.1908 18.0246 26.46 18.0258C27.1287 18.0283 27.6554 18.365 27.8883 18.9425C27.93 19.0517 27.9621 19.1667 27.9987 19.2788V20.7163C27.9875 20.7492 27.9733 20.7817 27.965 20.8154C27.9178 21.027 27.8246 21.2256 27.6921 21.3972C27.5597 21.5688 27.3911 21.7091 27.1983 21.8083C26.9225 21.9563 26.6246 21.9846 26.3196 21.9683C26.2208 21.9633 26.1742 21.9933 26.1425 22.0933C26.0821 22.2808 26.0029 22.4625 25.9279 22.645C25.8829 22.755 25.7808 22.8708 25.7971 22.9688C25.8133 23.0667 25.9442 23.1458 26.0254 23.2325C26.5754 23.8213 26.5858 24.6758 26.0383 25.2658C25.7883 25.5364 25.5271 25.7974 25.2546 26.0487C24.8767 26.3992 24.4246 26.5071 23.9212 26.4013C23.6133 26.3337 23.3365 26.1659 23.1342 25.9242C23.0254 25.7992 22.9362 25.7725 22.7829 25.8596C22.6037 25.9613 22.4037 26.0263 22.21 26.1021C21.9717 26.1929 21.9662 26.1896 21.9704 26.4446C21.98 27.0092 21.7621 27.4608 21.2846 27.7633C21.1167 27.8725 20.9096 27.9233 20.7187 28ZM12.9375 19.9883C12.9375 20.155 12.9375 20.3217 12.9375 20.4883C12.9429 20.8063 13.1617 21.03 13.4792 21.0342C13.6925 21.0379 13.9058 21.0342 14.1196 21.0342C14.3904 21.0371 14.555 21.1554 14.6246 21.4092C14.756 21.8921 14.9477 22.3566 15.195 22.7917C15.3337 23.0371 15.305 23.2221 15.105 23.4267C14.9592 23.5758 14.8083 23.7183 14.6642 23.8696C14.4346 24.1083 14.4337 24.4113 14.6642 24.6496C14.8946 24.8879 15.1179 25.1079 15.3492 25.3346C15.5804 25.5613 15.8908 25.5642 16.1292 25.3346C16.2758 25.1942 16.4167 25.0475 16.5608 24.905C16.7771 24.6913 16.96 24.6621 17.2208 24.8108C17.6462 25.0524 18.0998 25.2405 18.5712 25.3708C18.8467 25.4479 18.9617 25.605 18.9642 25.8954C18.9642 26.1038 18.9617 26.3121 18.9642 26.5204C18.97 26.8367 19.1917 27.0567 19.51 27.0621C19.8283 27.0675 20.1558 27.065 20.4787 27.0621C20.8017 27.0592 21.0275 26.8404 21.0325 26.5142C21.0358 26.3108 21.0325 26.1079 21.0325 25.9046C21.0325 25.6042 21.1467 25.4504 21.4329 25.3708C21.9044 25.2401 22.3579 25.0513 22.7829 24.8088C23.0329 24.6671 23.2167 24.6933 23.4192 24.89C23.5683 25.0354 23.7108 25.1863 23.8621 25.3308C24.1067 25.5671 24.4108 25.5675 24.6537 25.3308C24.8812 25.1086 25.106 24.8839 25.3279 24.6567C25.565 24.4142 25.5646 24.1121 25.3279 23.865C25.1871 23.7183 25.0404 23.5779 24.8979 23.4329C24.6896 23.2217 24.6617 23.0392 24.8062 22.7858C25.052 22.3561 25.2431 21.8972 25.375 21.42C25.4467 21.1621 25.6092 21.0396 25.875 21.0358C26.0887 21.0329 26.3021 21.0358 26.5158 21.0358C26.8421 21.0308 27.06 20.8104 27.0629 20.4813C27.0658 20.1521 27.0667 19.8354 27.0629 19.5125C27.0592 19.1896 26.8387 18.9729 26.5212 18.9675C26.3075 18.9638 26.0942 18.9675 25.8804 18.9675C25.6112 18.9642 25.4458 18.8425 25.3758 18.5896C25.2439 18.1071 25.052 17.6431 24.8046 17.2083C24.6667 16.9658 24.6946 16.7796 24.885 16.5833C25.0337 16.43 25.1892 16.2833 25.3367 16.1287C25.5658 15.8883 25.5654 15.5871 25.3346 15.3487C25.1037 15.1104 24.8808 14.8904 24.6496 14.6638C24.4183 14.4371 24.1079 14.435 23.87 14.6638C23.7233 14.8046 23.5829 14.9513 23.4383 15.0938C23.2217 15.3071 23.0379 15.3358 22.7779 15.1867C22.3529 14.9441 21.8991 14.7559 21.4271 14.6267C21.1583 14.5521 21.0387 14.3933 21.0358 14.1171C21.0333 13.9087 21.0358 13.7004 21.0358 13.4921C21.0312 13.1562 20.8117 12.9396 20.4733 12.9371C20.1554 12.935 19.8379 12.9346 19.52 12.9371C19.1917 12.94 18.9717 13.1583 18.9671 13.485C18.9637 13.6988 18.9671 13.9121 18.9671 14.1258C18.9633 14.3854 18.8421 14.5542 18.5971 14.6208C18.1089 14.7539 17.6394 14.9482 17.2 15.1992C16.9642 15.3333 16.7754 15.3025 16.5779 15.1096C16.4288 14.9642 16.2862 14.8138 16.1346 14.6692C15.8896 14.4325 15.5858 14.4325 15.3429 14.6692C15.1157 14.8914 14.891 15.1161 14.6688 15.3433C14.4317 15.5858 14.4321 15.8896 14.6688 16.135C14.81 16.2812 14.9567 16.4217 15.0987 16.5667C15.3071 16.7783 15.3346 16.9617 15.1904 17.2146C14.9457 17.6442 14.7557 18.1027 14.625 18.5796C14.5533 18.8388 14.3921 18.9604 14.125 18.9642C13.9117 18.9671 13.6979 18.9642 13.4846 18.9642C13.1575 18.9692 12.9429 19.1887 12.9367 19.5179C12.9358 19.6758 12.9375 19.8333 12.9375 19.9883Z" fill="black"/>
<path d="M19.9999 16.5212C20.6882 16.5213 21.3609 16.7255 21.933 17.1081C22.5052 17.4906 22.951 18.0342 23.2141 18.6702C23.4771 19.3061 23.5457 20.0058 23.411 20.6808C23.2763 21.3557 22.9445 21.9755 22.4574 22.4618C21.9704 22.948 21.3501 23.2789 20.675 23.4125C19.9998 23.5462 19.3002 23.4765 18.6647 23.2125C18.0291 22.9484 17.4862 22.5017 17.1046 21.929C16.7229 21.3563 16.5198 20.6832 16.5208 19.995C16.521 19.5384 16.6112 19.0864 16.7863 18.6647C16.9613 18.243 17.2176 17.86 17.5407 17.5374C17.8638 17.2148 18.2473 16.959 18.6692 16.7847C19.0912 16.6103 19.5434 16.5208 19.9999 16.5212ZM22.5416 19.9967C22.5409 19.494 22.3912 19.0028 22.1114 18.5852C21.8316 18.1675 21.4342 17.8423 20.9695 17.6505C20.5048 17.4588 19.9937 17.4091 19.5008 17.5078C19.0079 17.6065 18.5553 17.8492 18.2003 18.2051C17.8453 18.561 17.6039 19.0142 17.5064 19.5074C17.409 20.0006 17.46 20.5116 17.653 20.9757C17.846 21.4399 18.1723 21.8364 18.5906 22.1152C19.009 22.3939 19.5006 22.5423 20.0033 22.5417C20.3372 22.5418 20.6679 22.476 20.9763 22.348C21.2848 22.2201 21.5649 22.0325 21.8007 21.7961C22.0366 21.5597 22.2234 21.279 22.3505 20.9702C22.4777 20.6614 22.5426 20.3306 22.5416 19.9967Z" fill="black"/>
</svg>
