<svg width="25" height="24" viewBox="0 0 25 24" fill="none" xmlns="http://www.w3.org/2000/svg">
<path d="M20.1653 0C21.3144 0 22.4165 0.456564 23.229 1.26925C24.0416 2.08194 24.4981 3.18418 24.4981 4.3335V13.5H18.1676L17.8826 13.5105C16.2869 13.6155 15.0931 14.415 14.4317 15.786C14.3537 15.936 14.2862 16.0965 14.2292 16.2675C13.0975 16.5747 11.9045 16.576 10.772 16.2714C9.63959 15.9668 8.60825 15.3671 7.78327 14.5335C7.64244 14.3962 7.4533 14.3197 7.25661 14.3205C7.05992 14.3213 6.87143 14.3994 6.73176 14.5379C6.59209 14.6764 6.51242 14.8643 6.50993 15.061C6.50744 15.2577 6.58232 15.4475 6.71844 15.5895C7.65434 16.535 8.80783 17.2364 10.0778 17.6324C11.3478 18.0283 12.6955 18.1066 14.0028 17.8605L13.9998 24H4.83474C3.68561 24 2.58355 23.5434 1.77099 22.7307C0.958436 21.9181 0.501946 20.8158 0.501946 19.6665V4.335C0.501749 3.76579 0.613675 3.20212 0.83133 2.67618C1.04899 2.15024 1.36811 1.67234 1.77046 1.26978C2.17282 0.867222 2.65053 0.547884 3.17631 0.330011C3.70208 0.112139 4.26563 -3.40994e-08 4.83474 0H20.1638H20.1653ZM24.4981 15C24.4098 15.1156 24.3141 15.2253 24.2116 15.3285L15.828 23.7135C15.723 23.8155 15.6165 23.9115 15.5025 23.9985L15.4995 17.6115L15.5085 17.397C15.5596 16.7829 15.826 16.2066 16.2607 15.7699C16.6954 15.3333 17.2704 15.0643 17.8841 15.0105L18.1091 15H24.4981ZM8.00073 7.5C7.60297 7.5 7.2215 7.65804 6.94024 7.93934C6.65898 8.22064 6.50097 8.60218 6.50097 9C6.50097 9.39782 6.65898 9.77936 6.94024 10.0607C7.2215 10.342 7.60297 10.5 8.00073 10.5C8.39849 10.5 8.77996 10.342 9.06122 10.0607C9.34248 9.77936 9.50049 9.39782 9.50049 9C9.50049 8.60218 9.34248 8.22064 9.06122 7.93934C8.77996 7.65804 8.39849 7.5 8.00073 7.5ZM16.9993 7.5C16.6015 7.5 16.22 7.65804 15.9388 7.93934C15.6575 8.22064 15.4995 8.60218 15.4995 9C15.4995 9.39782 15.6575 9.77936 15.9388 10.0607C16.22 10.342 16.6015 10.5 16.9993 10.5C17.397 10.5 17.7785 10.342 18.0598 10.0607C18.341 9.77936 18.499 9.39782 18.499 9C18.499 8.60218 18.341 8.22064 18.0598 7.93934C17.7785 7.65804 17.397 7.5 16.9993 7.5Z" fill="#3F54F3"/>
</svg>
