<svg width="25" height="24" viewBox="0 0 25 24" fill="none" xmlns="http://www.w3.org/2000/svg">
<path d="M12.1475 0.108314C12.256 0.0371959 12.3771 0 12.5 0C12.6229 0 12.744 0.0371959 12.8525 0.108314L24.1015 7.49331C24.2213 7.5721 24.3215 7.68946 24.3913 7.83285C24.4612 7.97625 24.4981 8.14031 24.4981 8.3075C24.4981 8.4747 24.4612 8.63875 24.3913 8.78215C24.3215 8.92555 24.2213 9.04291 24.1015 9.1217L12.8525 16.5067C12.744 16.5778 12.6229 16.615 12.5 16.615C12.3771 16.615 12.256 16.5778 12.1475 16.5067L0.898475 9.1217C0.778676 9.04291 0.678511 8.92555 0.608672 8.78215C0.538834 8.63875 0.501945 8.4747 0.501945 8.3075C0.501945 8.14031 0.538834 7.97625 0.608672 7.83285C0.678511 7.68946 0.778676 7.5721 0.898475 7.49331L12.1475 0.108314V0.108314Z" fill="#5BD424"/>
<path d="M3.68824 13.0469L0.898475 14.8784C0.778676 14.9571 0.678511 15.0745 0.608672 15.2179C0.538834 15.3613 0.501945 15.5254 0.501945 15.6925C0.501945 15.8597 0.538834 16.0238 0.608672 16.1672C0.678511 16.3106 0.778676 16.428 0.898475 16.5067L12.1475 23.8917C12.256 23.9629 12.3771 24.0001 12.5 24.0001C12.6229 24.0001 12.744 23.9629 12.8525 23.8917L24.1015 16.5067C24.2213 16.428 24.3215 16.3106 24.3913 16.1672C24.4612 16.0238 24.4981 15.8597 24.4981 15.6925C24.4981 15.5254 24.4612 15.3613 24.3913 15.2179C24.3215 15.0745 24.2213 14.9571 24.1015 14.8784L21.3118 13.0469L13.5574 18.1351C13.2319 18.3485 12.8688 18.4601 12.5 18.4601C12.1312 18.4601 11.7681 18.3485 11.4426 18.1351L3.68824 13.0469Z" fill="#5BD424"/>
</svg>
