<svg width="21" height="20" viewBox="0 0 21 20" fill="none" xmlns="http://www.w3.org/2000/svg">
<path d="M4.99828 1.46766e-08C4.89027 -2.41576e-05 4.78409 0.0298108 4.69011 0.0865953C4.59613 0.14338 4.51755 0.225175 4.46203 0.324005L0.71202 6.99077C0.645452 7.1094 0.615106 7.24717 0.625184 7.38501C0.635261 7.52284 0.685264 7.65393 0.76827 7.76012L10.1433 19.7603C10.2019 19.8353 10.2753 19.8957 10.3583 19.9371C10.4412 19.9785 10.5317 20 10.6233 20C10.7149 20 10.8053 19.9785 10.8883 19.9371C10.9712 19.8957 11.0446 19.8353 11.1033 19.7603L20.4783 7.76012C20.5613 7.65393 20.6113 7.52284 20.6214 7.38501C20.6315 7.24717 20.6011 7.1094 20.5346 6.99077L16.7846 0.324005C16.729 0.225175 16.6505 0.14338 16.5565 0.0865953C16.4625 0.0298108 16.3563 -2.41576e-05 16.2483 1.46766e-08H4.99828ZM2.35202 6.66677L5.35203 1.33335H7.82579L5.82578 6.66677H2.35202ZM5.82078 8.00012L8.65454 15.7722L2.58327 8.00012H5.82078ZM10.6233 17.4936L7.16203 8.00012H14.0845L10.6233 17.4936ZM7.17203 6.66677L9.17204 1.33335H12.0745L14.0745 6.66677H7.17328H7.17203ZM15.4221 6.66677L13.422 1.33335H15.8946L18.8946 6.66677H15.4208H15.4221ZM15.4258 8.00012H18.6633L12.592 15.7722L15.4258 8.00012Z" fill="#757F94"/>
</svg>
