<svg width="22" height="20" viewBox="0 0 22 20" fill="none" xmlns="http://www.w3.org/2000/svg">
<path d="M21.9368 19.5212C21.7715 19.8925 21.4877 20.0006 21.1015 20C14.5473 19.9918 7.99286 19.9898 1.43825 19.9941C1.03182 19.9941 0.790138 19.8329 0.710618 19.5003C0.693838 19.4164 0.686685 19.3307 0.689309 19.245C0.689309 17.4868 0.683591 15.7286 0.689309 13.9698C0.697624 11.7269 1.99126 9.86871 4.04527 9.13952C4.55901 8.96521 5.09709 8.87987 5.63775 8.88696C6.94489 8.88373 8.25151 8.8746 9.55814 8.88696C11.2426 8.90469 12.6059 9.59788 13.6033 11.016C13.702 11.1568 13.7987 11.2003 13.9619 11.1836C14.202 11.1589 14.4447 11.1616 14.6864 11.161C16.0346 11.161 17.3828 11.1498 18.731 11.161C20.0792 11.1723 21.073 11.8059 21.6551 13.0692C21.7923 13.3669 21.8453 13.706 21.9368 14.0257V19.5212ZM11.0285 18.6959V18.4336C11.0285 17.1257 11.0285 15.8178 11.0285 14.5109C11.0285 13.9467 11.1324 13.405 11.3881 12.8989C11.6511 12.3894 12.0365 11.9584 12.5071 11.6474C12.4692 11.5936 12.4391 11.5479 12.4032 11.5055C11.6553 10.6049 10.6958 10.1788 9.55606 10.1745C8.26347 10.1691 6.97088 10.1718 5.67829 10.1745C3.51253 10.1772 1.93616 11.8064 1.93616 14.0434C1.93616 15.5151 1.93616 16.9872 1.93616 18.46V18.6969L11.0285 18.6959ZM20.692 18.6959C20.692 17.2772 20.692 15.8833 20.692 14.4894C20.692 13.2847 19.8932 12.4545 18.7248 12.4475C17.2311 12.4416 15.7373 12.4351 14.2441 12.455C13.9343 12.4581 13.6284 12.5271 13.3455 12.6576C12.6069 13.0128 12.28 13.663 12.2759 14.4894C12.2696 15.8258 12.2759 17.1628 12.2759 18.4997C12.2759 18.5621 12.2831 18.6239 12.2873 18.6937L20.692 18.6959Z" fill="#757F94"/>
<path d="M11.5524 4.0749C11.5628 6.31299 9.79568 8.14699 7.61277 8.16257C5.4387 8.17762 3.64404 6.32965 3.6482 4.07866C3.65362 3.00148 4.06884 1.96977 4.8041 1.20657C5.53936 0.443373 6.53559 0.00999539 7.57743 0.000127407C9.74942 -0.0176054 11.5415 1.818 11.5524 4.0749ZM7.60342 6.8756C8.31961 6.87362 9.00593 6.57859 9.51235 6.05499C10.0188 5.5314 10.3041 4.82182 10.3061 4.08135C10.3025 3.3401 10.0156 2.63037 9.50797 2.10693C9.00032 1.58349 8.3131 1.28879 7.59614 1.2871C6.8796 1.29064 6.19345 1.58683 5.68722 2.11113C5.18098 2.63544 4.89568 3.34535 4.8935 4.08619C4.89625 4.82725 5.18302 5.53697 5.69097 6.05983C6.19893 6.58268 6.88664 6.87604 7.60342 6.8756Z" fill="#757F94"/>
<path d="M19.6587 7.01156C19.653 8.82352 18.2118 10.3061 16.4706 10.2894C14.7165 10.2738 13.295 8.78806 13.3065 6.98146C13.3102 6.11055 13.6484 5.27684 14.2467 4.66373C14.5429 4.36015 14.8941 4.11987 15.2801 3.9566C15.6662 3.79334 16.0795 3.71028 16.4966 3.71219C16.9137 3.7141 17.3264 3.80092 17.711 3.96771C18.0956 4.13449 18.4447 4.37797 18.7384 4.68425C19.032 4.99052 19.2644 5.35359 19.4223 5.75273C19.5802 6.15186 19.6606 6.57925 19.6587 7.01048V7.01156ZM16.4764 5.00991C15.9664 5.01456 15.4787 5.22663 15.1188 5.60023C14.7589 5.97383 14.5558 6.47891 14.5533 7.00618C14.5602 7.53306 14.7655 8.03639 15.1257 8.40918C15.4859 8.78197 15.9725 8.99481 16.4821 9.00246C17.5366 9.00784 18.4233 8.08358 18.4129 6.98953C18.408 6.46217 18.2017 5.95819 17.8389 5.5874C17.4762 5.2166 16.9864 5.00903 16.4764 5.00991Z" fill="#757F94"/>
</svg>
