<svg width="21" height="20" viewBox="0 0 21 20" fill="none" xmlns="http://www.w3.org/2000/svg">
<path d="M21 9.41313C21 9.80351 21 10.1944 21 10.5848C20.9882 10.6469 20.9701 10.709 20.9657 10.7721C20.9056 11.6732 20.7172 12.5484 20.4095 13.3957C18.6611 18.2128 13.5818 20.9274 8.60125 19.7102C3.46321 18.455 0.16993 13.314 1.17719 8.12409C1.56365 6.13404 2.46573 4.41256 3.89077 2.97383C5.38478 1.46563 7.18013 0.515614 9.27732 0.154097C9.65401 0.0890338 10.0356 0.0508765 10.4147 0C10.8051 0 11.196 0 11.5863 0C11.85 0.0313086 12.1147 0.0582144 12.3779 0.0953934C14.3493 0.373746 16.0928 1.16135 17.5849 2.47925C19.3426 4.03147 20.4418 5.96282 20.8464 8.27868C20.9119 8.65438 20.9496 9.03498 21 9.41313ZM8.58119 11.1307C6.46542 9.50656 6.4297 6.64378 8.04699 4.9722C9.59579 3.37106 12.1391 3.27517 13.8288 4.84158C15.4104 6.3082 15.7504 9.3784 13.4306 11.1346C15.5474 11.8968 17.0712 13.2993 18.0056 15.3456C20.6707 11.9002 20.4892 6.7064 16.9303 3.47085C13.4179 0.277864 8.03721 0.428536 4.73512 3.78883C1.32688 7.25724 1.57833 12.2969 3.99986 15.3397C4.93129 13.2988 6.45319 11.8992 8.58119 11.1307ZM11.0761 18.8316C11.2977 18.8184 11.6044 18.813 11.9077 18.7798C13.8733 18.5636 15.5801 17.7789 17.0267 16.4316C17.0693 16.392 17.0991 16.2917 17.0805 16.2389C16.5585 14.7664 15.6364 13.6055 14.2852 12.8253C12.2883 11.6722 10.2171 11.5901 8.14238 12.5939C6.58038 13.3497 5.51588 14.5864 4.92738 16.2227C4.90634 16.281 4.93178 16.391 4.9763 16.4326C6.67283 18.0039 8.68197 18.7949 11.0761 18.8316ZM13.9296 7.81248C13.9301 6.20057 12.6083 4.88023 10.9964 4.88316C9.3918 4.88561 8.07781 6.19666 8.07194 7.80171C8.06558 9.41313 9.38299 10.7374 10.9954 10.7408C12.6068 10.7442 13.9291 9.42438 13.9296 7.81248Z" fill="#757F94"/>
</svg>
