<svg width="21" height="20" viewBox="0 0 21 20" fill="none" xmlns="http://www.w3.org/2000/svg">
<path d="M20.3095 9.41477C20.3095 9.80522 20.3095 10.1962 20.3095 10.5866C20.2782 10.8498 20.2518 11.1136 20.2146 11.3758C19.9362 13.3486 19.1528 15.0963 17.8293 16.5847C15.9113 18.742 13.4982 19.8839 10.6124 19.9931C9.03986 20.0523 7.5358 19.7318 6.1027 19.0761C6.00875 19.0331 5.87322 19.0292 5.7739 19.0605C4.84964 19.3492 3.92979 19.6515 3.00701 19.9446C2.47907 20.1124 2.09058 19.7929 2.17669 19.2572C2.32005 18.3647 2.47711 17.4747 2.61949 16.5818C2.6327 16.4986 2.60677 16.39 2.55931 16.32C2.33375 15.9863 2.07639 15.6727 1.86306 15.3317C0.471055 13.1044 0.01798 10.6898 0.491116 8.11132C0.856121 6.12288 1.77499 4.41039 3.19538 2.97582C4.68965 1.46589 6.4858 0.515704 8.58434 0.154124C8.96108 0.0890494 9.34272 0.0508854 9.72241 0C10.1129 0 10.5038 0 10.8942 0C11.158 0.0313141 11.4227 0.0582246 11.6859 0.0954101C13.6577 0.373812 15.4015 1.16156 16.8938 2.47968C18.6518 4.03218 19.7512 5.96386 20.1559 8.28012C20.2214 8.65589 20.2591 9.03656 20.3095 9.41477ZM3.48161 18.5604C4.1622 18.3417 4.81784 18.1534 5.45684 17.9175C5.85365 17.7712 6.18783 17.8045 6.57045 17.9885C8.1616 18.7542 9.84571 18.9944 11.5885 18.7341C13.758 18.4097 15.6006 17.4317 16.9961 15.7392C19.2928 12.9537 19.8178 9.81403 18.3842 6.50207C16.9985 3.30119 14.4469 1.53977 10.9637 1.20853C9.05747 1.02749 7.25789 1.46002 5.66234 2.511C2.56812 4.54886 1.18639 7.44101 1.56509 11.141C1.67322 12.1988 1.99028 13.2077 2.5236 14.128C2.85777 14.7049 3.26192 15.2421 3.65188 15.7847C3.80552 15.9986 3.88674 16.2001 3.83585 16.4697C3.70766 17.1523 3.60246 17.8387 3.48161 18.5604Z" fill="#757F94"/>
</svg>
