<svg width="20" height="20" viewBox="0 0 20 20" fill="none" xmlns="http://www.w3.org/2000/svg">
<path d="M8.855 0.420128C9.16445 0.150328 9.57415 0 10 0C10.4259 0 10.8356 0.150328 11.145 0.420128L19.2183 7.45806C19.7183 7.89303 20 8.50015 20 9.13339V17.6945C20 18.306 19.7366 18.8924 19.2678 19.3247C18.7989 19.7571 18.163 20 17.5 20H14.1667C13.8382 20 13.513 19.9403 13.2096 19.8244C12.9062 19.7084 12.6305 19.5384 12.3983 19.3242C12.1661 19.1099 11.982 18.8556 11.8565 18.5757C11.731 18.2958 11.6664 17.9959 11.6667 17.693V13.8505C11.6667 13.6466 11.5789 13.4512 11.4226 13.307C11.2663 13.1629 11.0543 13.082 10.8333 13.082H9.16667C8.94565 13.082 8.73369 13.1629 8.57741 13.307C8.42113 13.4512 8.33333 13.6466 8.33333 13.8505V17.693C8.33333 18.3044 8.06994 18.8908 7.6011 19.3232C7.13226 19.7556 6.49637 19.9985 5.83333 19.9985H2.5C1.83696 19.9985 1.20107 19.7556 0.732233 19.3232C0.263392 18.8908 0 18.3044 0 17.693V9.13186C0 8.49861 0.283333 7.8915 0.783333 7.45652L8.855 0.417054V0.420128ZM10 1.53599L1.92667 8.57546C1.84471 8.64712 1.7794 8.73339 1.7347 8.82903C1.69001 8.92468 1.66686 9.02771 1.66667 9.13186V17.693C1.66667 17.8968 1.75446 18.0923 1.91074 18.2364C2.06702 18.3805 2.27899 18.4615 2.5 18.4615H5.83333C6.05435 18.4615 6.26631 18.3805 6.42259 18.2364C6.57887 18.0923 6.66667 17.8968 6.66667 17.693V13.8505C6.66667 13.239 6.93006 12.6526 7.3989 12.2202C7.86774 11.7879 8.50362 11.545 9.16667 11.545H10.8333C11.4964 11.545 12.1323 11.7879 12.6011 12.2202C13.0699 12.6526 13.3333 13.239 13.3333 13.8505V17.693C13.3333 17.8968 13.4211 18.0923 13.5774 18.2364C13.7337 18.3805 13.9457 18.4615 14.1667 18.4615H17.5C17.721 18.4615 17.933 18.3805 18.0893 18.2364C18.2455 18.0923 18.3333 17.8968 18.3333 17.693V9.13186C18.3334 9.02745 18.3103 8.92413 18.2656 8.8282C18.2209 8.73228 18.1555 8.64576 18.0733 8.57393L10 1.53599Z" fill="#757F94"/>
</svg>
