<svg width="61" height="61" viewBox="0 0 61 61" fill="none" xmlns="http://www.w3.org/2000/svg">
<path d="M0 30C0 13.4315 13.4315 0 30 0H31C47.5685 0 61 13.4315 61 30V31C61 47.5685 47.5685 61 31 61H30C13.4315 61 0 47.5685 0 31V30Z" fill="#E33939"/>
<g clip-path="url(#clip0_282_2179)">
<path d="M42.0326 23.507C43.1227 26.875 42.2104 30.3022 40.288 32.8844C39.019 34.6355 37.5025 36.1447 35.952 37.4641C34.5256 38.7919 31.3334 41.4191 30.4872 41.4921C29.7393 41.3492 28.9002 40.5035 28.3064 40.0682C24.9701 37.532 21.3786 34.4478 19.5576 31.0756C18.0308 27.8382 18.028 23.8339 20.4042 21.3518C23.4854 18.5741 28.1307 19.1168 30.4872 22.0189C31.1201 21.1979 31.8983 20.5522 32.8219 20.0818C36.5662 18.5873 40.4614 20.1102 42.0326 23.507Z" fill="#F8F8F8"/>
</g>
<defs>
<clipPath id="clip0_282_2179">
<rect width="24" height="24" fill="white" transform="translate(18.5 18.5)"/>
</clipPath>
</defs>
</svg>
